<svg width="1512" height="982" viewBox="0 0 1512 982" fill="none" xmlns="http://www.w3.org/2000/svg">
<rect width="1512" height="982" fill="#1E1E1E"/>
<rect width="1512" height="982" fill="white"/>
<rect x="38" y="150" width="263" height="811" fill="#D9D9D9"/>
<rect x="340" y="151" width="1133" height="810" fill="#D9D9D9"/>
<rect width="1512" height="122" fill="#D9D9D9"/>
<path d="M88 472H255.5" stroke="black"/>
<path d="M88 745H255.5" stroke="black"/>
<path d="M64.242 193.148H76.108V196.888H64.242V193.148ZM64.616 206H60.196V182.2H77.57V185.906H64.616V206ZM81.4364 206V187.844H85.6864V206H81.4364ZM83.5784 184.852C82.7851 184.852 82.1278 184.603 81.6064 184.104C81.1078 183.605 80.8584 183.005 80.8584 182.302C80.8584 181.577 81.1078 180.976 81.6064 180.5C82.1278 180.001 82.7851 179.752 83.5784 179.752C84.3718 179.752 85.0178 179.99 85.5164 180.466C86.0378 180.919 86.2984 181.497 86.2984 182.2C86.2984 182.948 86.0491 183.583 85.5504 184.104C85.0518 184.603 84.3944 184.852 83.5784 184.852ZM91.2646 206V180.772H95.5146V206H91.2646ZM108.823 206.238C106.829 206.238 105.287 205.728 104.199 204.708C103.111 203.665 102.567 202.135 102.567 200.118V183.832H106.817V200.016C106.817 200.877 107.033 201.546 107.463 202.022C107.917 202.498 108.54 202.736 109.333 202.736C110.285 202.736 111.079 202.487 111.713 201.988L112.903 205.014C112.405 205.422 111.793 205.728 111.067 205.932C110.342 206.136 109.594 206.238 108.823 206.238ZM99.5752 191.38V187.98H111.679V191.38H99.5752ZM124.336 206.238C122.318 206.238 120.55 205.841 119.032 205.048C117.536 204.232 116.368 203.121 115.53 201.716C114.714 200.311 114.306 198.713 114.306 196.922C114.306 195.109 114.702 193.511 115.496 192.128C116.312 190.723 117.422 189.623 118.828 188.83C120.256 188.037 121.876 187.64 123.69 187.64C125.458 187.64 127.033 188.025 128.416 188.796C129.798 189.567 130.886 190.655 131.68 192.06C132.473 193.465 132.87 195.12 132.87 197.024C132.87 197.205 132.858 197.409 132.836 197.636C132.836 197.863 132.824 198.078 132.802 198.282H117.672V195.46H130.558L128.892 196.344C128.914 195.301 128.699 194.383 128.246 193.59C127.792 192.797 127.169 192.173 126.376 191.72C125.605 191.267 124.71 191.04 123.69 191.04C122.647 191.04 121.729 191.267 120.936 191.72C120.165 192.173 119.553 192.808 119.1 193.624C118.669 194.417 118.454 195.358 118.454 196.446V197.126C118.454 198.214 118.703 199.177 119.202 200.016C119.7 200.855 120.403 201.501 121.31 201.954C122.216 202.407 123.259 202.634 124.438 202.634C125.458 202.634 126.376 202.475 127.192 202.158C128.008 201.841 128.733 201.342 129.368 200.662L131.646 203.28C130.83 204.232 129.798 204.969 128.552 205.49C127.328 205.989 125.922 206.238 124.336 206.238ZM136.952 206V187.844H140.998V192.842L140.522 191.38C141.066 190.156 141.916 189.227 143.072 188.592C144.251 187.957 145.713 187.64 147.458 187.64V191.686C147.277 191.641 147.107 191.618 146.948 191.618C146.789 191.595 146.631 191.584 146.472 191.584C144.863 191.584 143.582 192.06 142.63 193.012C141.678 193.941 141.202 195.335 141.202 197.194V206H136.952Z" fill="black"/>
<rect x="61" y="231" width="217" height="42" fill="#BCBCBC"/>
<rect x="61" y="499" width="217" height="42" fill="#BCBCBC"/>
<rect x="61" y="775" width="217" height="42" fill="#BCBCBC"/>
<rect x="61" y="347" width="217" height="42" fill="#BCBCBC"/>
<rect x="61" y="615" width="217" height="42" fill="#BCBCBC"/>
<rect x="61" y="891" width="217" height="42" fill="#BCBCBC"/>
<rect x="61" y="289" width="217" height="42" fill="#BCBCBC"/>
<rect x="61" y="557" width="217" height="42" fill="#BCBCBC"/>
<rect x="61" y="833" width="217" height="42" fill="#BCBCBC"/>
<rect x="61" y="405" width="217" height="42" fill="#BCBCBC"/>
<rect x="61" y="673" width="217" height="42" fill="#BCBCBC"/>
<rect x="358" y="19" width="620" height="42" fill="#BCBCBC"/>
<path d="M376.765 48.3C375.125 48.3 373.555 48.07 372.055 47.61C370.555 47.13 369.365 46.52 368.485 45.78L369.835 42.75C370.675 43.41 371.715 43.96 372.955 44.4C374.195 44.84 375.465 45.06 376.765 45.06C377.865 45.06 378.755 44.94 379.435 44.7C380.115 44.46 380.615 44.14 380.935 43.74C381.255 43.32 381.415 42.85 381.415 42.33C381.415 41.69 381.185 41.18 380.725 40.8C380.265 40.4 379.665 40.09 378.925 39.87C378.205 39.63 377.395 39.41 376.495 39.21C375.615 39.01 374.725 38.78 373.825 38.52C372.945 38.24 372.135 37.89 371.395 37.47C370.675 37.03 370.085 36.45 369.625 35.73C369.165 35.01 368.935 34.09 368.935 32.97C368.935 31.83 369.235 30.79 369.835 29.85C370.455 28.89 371.385 28.13 372.625 27.57C373.885 26.99 375.475 26.7 377.395 26.7C378.655 26.7 379.905 26.86 381.145 27.18C382.385 27.5 383.465 27.96 384.385 28.56L383.155 31.59C382.215 31.03 381.245 30.62 380.245 30.36C379.245 30.08 378.285 29.94 377.365 29.94C376.285 29.94 375.405 30.07 374.725 30.33C374.065 30.59 373.575 30.93 373.255 31.35C372.955 31.77 372.805 32.25 372.805 32.79C372.805 33.43 373.025 33.95 373.465 34.35C373.925 34.73 374.515 35.03 375.235 35.25C375.975 35.47 376.795 35.69 377.695 35.91C378.595 36.11 379.485 36.34 380.365 36.6C381.265 36.86 382.075 37.2 382.795 37.62C383.535 38.04 384.125 38.61 384.565 39.33C385.025 40.05 385.255 40.96 385.255 42.06C385.255 43.18 384.945 44.22 384.325 45.18C383.725 46.12 382.795 46.88 381.535 47.46C380.275 48.02 378.685 48.3 376.765 48.3ZM396.292 48.21C394.512 48.21 392.952 47.86 391.612 47.16C390.292 46.44 389.262 45.46 388.522 44.22C387.802 42.98 387.442 41.57 387.442 39.99C387.442 38.39 387.792 36.98 388.492 35.76C389.212 34.52 390.192 33.55 391.432 32.85C392.692 32.15 394.122 31.8 395.722 31.8C397.282 31.8 398.672 32.14 399.892 32.82C401.112 33.5 402.072 34.46 402.772 35.7C403.472 36.94 403.822 38.4 403.822 40.08C403.822 40.24 403.812 40.42 403.792 40.62C403.792 40.82 403.782 41.01 403.762 41.19H390.412V38.7H401.782L400.312 39.48C400.332 38.56 400.142 37.75 399.742 37.05C399.342 36.35 398.792 35.8 398.092 35.4C397.412 35 396.622 34.8 395.722 34.8C394.802 34.8 393.992 35 393.292 35.4C392.612 35.8 392.072 36.36 391.672 37.08C391.292 37.78 391.102 38.61 391.102 39.57V40.17C391.102 41.13 391.322 41.98 391.762 42.72C392.202 43.46 392.822 44.03 393.622 44.43C394.422 44.83 395.342 45.03 396.382 45.03C397.282 45.03 398.092 44.89 398.812 44.61C399.532 44.33 400.172 43.89 400.732 43.29L402.742 45.6C402.022 46.44 401.112 47.09 400.012 47.55C398.932 47.99 397.692 48.21 396.292 48.21ZM416.855 48V44.76L416.645 44.07V38.4C416.645 37.3 416.315 36.45 415.655 35.85C414.995 35.23 413.995 34.92 412.655 34.92C411.755 34.92 410.865 35.06 409.985 35.34C409.125 35.62 408.395 36.01 407.795 36.51L406.325 33.78C407.185 33.12 408.205 32.63 409.385 32.31C410.585 31.97 411.825 31.8 413.105 31.8C415.425 31.8 417.215 32.36 418.475 33.48C419.755 34.58 420.395 36.29 420.395 38.61V48H416.855ZM411.815 48.21C410.615 48.21 409.565 48.01 408.665 47.61C407.765 47.19 407.065 46.62 406.565 45.9C406.085 45.16 405.845 44.33 405.845 43.41C405.845 42.51 406.055 41.7 406.475 40.98C406.915 40.26 407.625 39.69 408.605 39.27C409.585 38.85 410.885 38.64 412.505 38.64H417.155V41.13H412.775C411.495 41.13 410.635 41.34 410.195 41.76C409.755 42.16 409.535 42.66 409.535 43.26C409.535 43.94 409.805 44.48 410.345 44.88C410.885 45.28 411.635 45.48 412.595 45.48C413.515 45.48 414.335 45.27 415.055 44.85C415.795 44.43 416.325 43.81 416.645 42.99L417.275 45.24C416.915 46.18 416.265 46.91 415.325 47.43C414.405 47.95 413.235 48.21 411.815 48.21ZM425.207 48V31.98H428.777V36.39L428.357 35.1C428.837 34.02 429.587 33.2 430.607 32.64C431.647 32.08 432.937 31.8 434.477 31.8V35.37C434.317 35.33 434.167 35.31 434.027 35.31C433.887 35.29 433.747 35.28 433.607 35.28C432.187 35.28 431.057 35.7 430.217 36.54C429.377 37.36 428.957 38.59 428.957 40.23V48H425.207ZM444.862 48.21C443.182 48.21 441.682 47.86 440.362 47.16C439.062 46.44 438.042 45.46 437.302 44.22C436.562 42.98 436.192 41.57 436.192 39.99C436.192 38.39 436.562 36.98 437.302 35.76C438.042 34.52 439.062 33.55 440.362 32.85C441.682 32.15 443.182 31.8 444.862 31.8C446.422 31.8 447.792 32.12 448.972 32.76C450.172 33.38 451.082 34.3 451.702 35.52L448.822 37.2C448.342 36.44 447.752 35.88 447.052 35.52C446.372 35.16 445.632 34.98 444.832 34.98C443.912 34.98 443.082 35.18 442.342 35.58C441.602 35.98 441.022 36.56 440.602 37.32C440.182 38.06 439.972 38.95 439.972 39.99C439.972 41.03 440.182 41.93 440.602 42.69C441.022 43.43 441.602 44 442.342 44.4C443.082 44.8 443.912 45 444.832 45C445.632 45 446.372 44.82 447.052 44.46C447.752 44.1 448.342 43.54 448.822 42.78L451.702 44.46C451.082 45.66 450.172 46.59 448.972 47.25C447.792 47.89 446.422 48.21 444.862 48.21ZM463.887 31.8C465.167 31.8 466.307 32.05 467.307 32.55C468.327 33.05 469.127 33.82 469.707 34.86C470.287 35.88 470.577 37.2 470.577 38.82V48H466.827V39.3C466.827 37.88 466.487 36.82 465.807 36.12C465.147 35.42 464.217 35.07 463.017 35.07C462.137 35.07 461.357 35.25 460.677 35.61C459.997 35.97 459.467 36.51 459.087 37.23C458.727 37.93 458.547 38.82 458.547 39.9V48H454.797V25.74H458.547V36.3L457.737 34.98C458.297 33.96 459.107 33.18 460.167 32.64C461.247 32.08 462.487 31.8 463.887 31.8Z" fill="black"/>
<rect x="1003" y="19" width="310" height="42" fill="#BCBCBC"/>
<path d="M1123.81 48.3C1120.93 48.3 1118.67 47.49 1117.03 45.87C1115.41 44.25 1114.6 41.91 1114.6 38.85V27H1118.5V38.7C1118.5 40.86 1118.96 42.43 1119.88 43.41C1120.82 44.39 1122.14 44.88 1123.84 44.88C1125.54 44.88 1126.85 44.39 1127.77 43.41C1128.69 42.43 1129.15 40.86 1129.15 38.7V27H1132.99V38.85C1132.99 41.91 1132.17 44.25 1130.53 45.87C1128.91 47.49 1126.67 48.3 1123.81 48.3ZM1143.05 48.21C1141.71 48.21 1140.42 48.04 1139.18 47.7C1137.96 47.34 1136.99 46.91 1136.27 46.41L1137.71 43.56C1138.43 44.02 1139.29 44.4 1140.29 44.7C1141.29 45 1142.29 45.15 1143.29 45.15C1144.47 45.15 1145.32 44.99 1145.84 44.67C1146.38 44.35 1146.65 43.92 1146.65 43.38C1146.65 42.94 1146.47 42.61 1146.11 42.39C1145.75 42.15 1145.28 41.97 1144.7 41.85C1144.12 41.73 1143.47 41.62 1142.75 41.52C1142.05 41.42 1141.34 41.29 1140.62 41.13C1139.92 40.95 1139.28 40.7 1138.7 40.38C1138.12 40.04 1137.65 39.59 1137.29 39.03C1136.93 38.47 1136.75 37.73 1136.75 36.81C1136.75 35.79 1137.04 34.91 1137.62 34.17C1138.2 33.41 1139.01 32.83 1140.05 32.43C1141.11 32.01 1142.36 31.8 1143.8 31.8C1144.88 31.8 1145.97 31.92 1147.07 32.16C1148.17 32.4 1149.08 32.74 1149.8 33.18L1148.36 36.03C1147.6 35.57 1146.83 35.26 1146.05 35.1C1145.29 34.92 1144.53 34.83 1143.77 34.83C1142.63 34.83 1141.78 35 1141.22 35.34C1140.68 35.68 1140.41 36.11 1140.41 36.63C1140.41 37.11 1140.59 37.47 1140.95 37.71C1141.31 37.95 1141.78 38.14 1142.36 38.28C1142.94 38.42 1143.58 38.54 1144.28 38.64C1145 38.72 1145.71 38.85 1146.41 39.03C1147.11 39.21 1147.75 39.46 1148.33 39.78C1148.93 40.08 1149.41 40.51 1149.77 41.07C1150.13 41.63 1150.31 42.36 1150.31 43.26C1150.31 44.26 1150.01 45.13 1149.41 45.87C1148.83 46.61 1148 47.19 1146.92 47.61C1145.84 48.01 1144.55 48.21 1143.05 48.21ZM1161.06 48.21C1159.28 48.21 1157.72 47.86 1156.38 47.16C1155.06 46.44 1154.03 45.46 1153.29 44.22C1152.57 42.98 1152.21 41.57 1152.21 39.99C1152.21 38.39 1152.56 36.98 1153.26 35.76C1153.98 34.52 1154.96 33.55 1156.2 32.85C1157.46 32.15 1158.89 31.8 1160.49 31.8C1162.05 31.8 1163.44 32.14 1164.66 32.82C1165.88 33.5 1166.84 34.46 1167.54 35.7C1168.24 36.94 1168.59 38.4 1168.59 40.08C1168.59 40.24 1168.58 40.42 1168.56 40.62C1168.56 40.82 1168.55 41.01 1168.53 41.19H1155.18V38.7H1166.55L1165.08 39.48C1165.1 38.56 1164.91 37.75 1164.51 37.05C1164.11 36.35 1163.56 35.8 1162.86 35.4C1162.18 35 1161.39 34.8 1160.49 34.8C1159.57 34.8 1158.76 35 1158.06 35.4C1157.38 35.8 1156.84 36.36 1156.44 37.08C1156.06 37.78 1155.87 38.61 1155.87 39.57V40.17C1155.87 41.13 1156.09 41.98 1156.53 42.72C1156.97 43.46 1157.59 44.03 1158.39 44.43C1159.19 44.83 1160.11 45.03 1161.15 45.03C1162.05 45.03 1162.86 44.89 1163.58 44.61C1164.3 44.33 1164.94 43.89 1165.5 43.29L1167.51 45.6C1166.79 46.44 1165.88 47.09 1164.78 47.55C1163.7 47.99 1162.46 48.21 1161.06 48.21ZM1172.2 48V31.98H1175.77V36.39L1175.35 35.1C1175.83 34.02 1176.58 33.2 1177.6 32.64C1178.64 32.08 1179.93 31.8 1181.47 31.8V35.37C1181.31 35.33 1181.16 35.31 1181.02 35.31C1180.88 35.29 1180.74 35.28 1180.6 35.28C1179.18 35.28 1178.05 35.7 1177.21 36.54C1176.37 37.36 1175.95 38.59 1175.95 40.23V48H1172.2ZM1199.96 48.3C1198.32 48.3 1196.75 48.07 1195.25 47.61C1193.75 47.13 1192.56 46.52 1191.68 45.78L1193.03 42.75C1193.87 43.41 1194.91 43.96 1196.15 44.4C1197.39 44.84 1198.66 45.06 1199.96 45.06C1201.06 45.06 1201.95 44.94 1202.63 44.7C1203.31 44.46 1203.81 44.14 1204.13 43.74C1204.45 43.32 1204.61 42.85 1204.61 42.33C1204.61 41.69 1204.38 41.18 1203.92 40.8C1203.46 40.4 1202.86 40.09 1202.12 39.87C1201.4 39.63 1200.59 39.41 1199.69 39.21C1198.81 39.01 1197.92 38.78 1197.02 38.52C1196.14 38.24 1195.33 37.89 1194.59 37.47C1193.87 37.03 1193.28 36.45 1192.82 35.73C1192.36 35.01 1192.13 34.09 1192.13 32.97C1192.13 31.83 1192.43 30.79 1193.03 29.85C1193.65 28.89 1194.58 28.13 1195.82 27.57C1197.08 26.99 1198.67 26.7 1200.59 26.7C1201.85 26.7 1203.1 26.86 1204.34 27.18C1205.58 27.5 1206.66 27.96 1207.58 28.56L1206.35 31.59C1205.41 31.03 1204.44 30.62 1203.44 30.36C1202.44 30.08 1201.48 29.94 1200.56 29.94C1199.48 29.94 1198.6 30.07 1197.92 30.33C1197.26 30.59 1196.77 30.93 1196.45 31.35C1196.15 31.77 1196 32.25 1196 32.79C1196 33.43 1196.22 33.95 1196.66 34.35C1197.12 34.73 1197.71 35.03 1198.43 35.25C1199.17 35.47 1199.99 35.69 1200.89 35.91C1201.79 36.11 1202.68 36.34 1203.56 36.6C1204.46 36.86 1205.27 37.2 1205.99 37.62C1206.73 38.04 1207.32 38.61 1207.76 39.33C1208.22 40.05 1208.45 40.96 1208.45 42.06C1208.45 43.18 1208.14 44.22 1207.52 45.18C1206.92 46.12 1205.99 46.88 1204.73 47.46C1203.47 48.02 1201.88 48.3 1199.96 48.3ZM1219.48 48.21C1217.7 48.21 1216.14 47.86 1214.8 47.16C1213.48 46.44 1212.45 45.46 1211.71 44.22C1210.99 42.98 1210.63 41.57 1210.63 39.99C1210.63 38.39 1210.98 36.98 1211.68 35.76C1212.4 34.52 1213.38 33.55 1214.62 32.85C1215.88 32.15 1217.31 31.8 1218.91 31.8C1220.47 31.8 1221.86 32.14 1223.08 32.82C1224.3 33.5 1225.26 34.46 1225.96 35.7C1226.66 36.94 1227.01 38.4 1227.01 40.08C1227.01 40.24 1227 40.42 1226.98 40.62C1226.98 40.82 1226.97 41.01 1226.95 41.19H1213.6V38.7H1224.97L1223.5 39.48C1223.52 38.56 1223.33 37.75 1222.93 37.05C1222.53 36.35 1221.98 35.8 1221.28 35.4C1220.6 35 1219.81 34.8 1218.91 34.8C1217.99 34.8 1217.18 35 1216.48 35.4C1215.8 35.8 1215.26 36.36 1214.86 37.08C1214.48 37.78 1214.29 38.61 1214.29 39.57V40.17C1214.29 41.13 1214.51 41.98 1214.95 42.72C1215.39 43.46 1216.01 44.03 1216.81 44.43C1217.61 44.83 1218.53 45.03 1219.57 45.03C1220.47 45.03 1221.28 44.89 1222 44.61C1222.72 44.33 1223.36 43.89 1223.92 43.29L1225.93 45.6C1225.21 46.44 1224.3 47.09 1223.2 47.55C1222.12 47.99 1220.88 48.21 1219.48 48.21ZM1237.96 48.21C1236.28 48.21 1234.78 47.86 1233.46 47.16C1232.16 46.44 1231.14 45.46 1230.4 44.22C1229.66 42.98 1229.29 41.57 1229.29 39.99C1229.29 38.39 1229.66 36.98 1230.4 35.76C1231.14 34.52 1232.16 33.55 1233.46 32.85C1234.78 32.15 1236.28 31.8 1237.96 31.8C1239.52 31.8 1240.89 32.12 1242.07 32.76C1243.27 33.38 1244.18 34.3 1244.8 35.52L1241.92 37.2C1241.44 36.44 1240.85 35.88 1240.15 35.52C1239.47 35.16 1238.73 34.98 1237.93 34.98C1237.01 34.98 1236.18 35.18 1235.44 35.58C1234.7 35.98 1234.12 36.56 1233.7 37.32C1233.28 38.06 1233.07 38.95 1233.07 39.99C1233.07 41.03 1233.28 41.93 1233.7 42.69C1234.12 43.43 1234.7 44 1235.44 44.4C1236.18 44.8 1237.01 45 1237.93 45C1238.73 45 1239.47 44.82 1240.15 44.46C1240.85 44.1 1241.44 43.54 1241.92 42.78L1244.8 44.46C1244.18 45.66 1243.27 46.59 1242.07 47.25C1240.89 47.89 1239.52 48.21 1237.96 48.21ZM1254.28 48.21C1252.52 48.21 1251.16 47.76 1250.2 46.86C1249.24 45.94 1248.76 44.59 1248.76 42.81V28.44H1252.51V42.72C1252.51 43.48 1252.7 44.07 1253.08 44.49C1253.48 44.91 1254.03 45.12 1254.73 45.12C1255.57 45.12 1256.27 44.9 1256.83 44.46L1257.88 47.13C1257.44 47.49 1256.9 47.76 1256.26 47.94C1255.62 48.12 1254.96 48.21 1254.28 48.21ZM1246.12 35.1V32.1H1256.8V35.1H1246.12ZM1260.97 48V31.98H1264.72V48H1260.97ZM1262.86 29.34C1262.16 29.34 1261.58 29.12 1261.12 28.68C1260.68 28.24 1260.46 27.71 1260.46 27.09C1260.46 26.45 1260.68 25.92 1261.12 25.5C1261.58 25.06 1262.16 24.84 1262.86 24.84C1263.56 24.84 1264.13 25.05 1264.57 25.47C1265.03 25.87 1265.26 26.38 1265.26 27C1265.26 27.66 1265.04 28.22 1264.6 28.68C1264.16 29.12 1263.58 29.34 1262.86 29.34ZM1276.84 48.21C1275.2 48.21 1273.74 47.86 1272.46 47.16C1271.18 46.44 1270.17 45.46 1269.43 44.22C1268.69 42.98 1268.32 41.57 1268.32 39.99C1268.32 38.39 1268.69 36.98 1269.43 35.76C1270.17 34.52 1271.18 33.55 1272.46 32.85C1273.74 32.15 1275.2 31.8 1276.84 31.8C1278.5 31.8 1279.97 32.15 1281.25 32.85C1282.55 33.55 1283.56 34.51 1284.28 35.73C1285.02 36.95 1285.39 38.37 1285.39 39.99C1285.39 41.57 1285.02 42.98 1284.28 44.22C1283.56 45.46 1282.55 46.44 1281.25 47.16C1279.97 47.86 1278.5 48.21 1276.84 48.21ZM1276.84 45C1277.76 45 1278.58 44.8 1279.3 44.4C1280.02 44 1280.58 43.42 1280.98 42.66C1281.4 41.9 1281.61 41.01 1281.61 39.99C1281.61 38.95 1281.4 38.06 1280.98 37.32C1280.58 36.56 1280.02 35.98 1279.3 35.58C1278.58 35.18 1277.77 34.98 1276.87 34.98C1275.95 34.98 1275.13 35.18 1274.41 35.58C1273.71 35.98 1273.15 36.56 1272.73 37.32C1272.31 38.06 1272.1 38.95 1272.1 39.99C1272.1 41.01 1272.31 41.9 1272.73 42.66C1273.15 43.42 1273.71 44 1274.41 44.4C1275.13 44.8 1275.94 45 1276.84 45ZM1298.06 31.8C1299.34 31.8 1300.48 32.05 1301.48 32.55C1302.5 33.05 1303.3 33.82 1303.88 34.86C1304.46 35.88 1304.75 37.2 1304.75 38.82V48H1301V39.3C1301 37.88 1300.66 36.82 1299.98 36.12C1299.32 35.42 1298.39 35.07 1297.19 35.07C1296.31 35.07 1295.53 35.25 1294.85 35.61C1294.17 35.97 1293.64 36.51 1293.26 37.23C1292.9 37.93 1292.72 38.82 1292.72 39.9V48H1288.97V31.98H1292.54V36.3L1291.91 34.98C1292.47 33.96 1293.28 33.18 1294.34 32.64C1295.42 32.08 1296.66 31.8 1298.06 31.8Z" fill="black"/>
<rect x="365" y="184" width="243" height="163" fill="#BCBCBC"/>
<path d="M395.212 236.34C393.399 236.34 391.71 236.045 390.146 235.456C388.605 234.844 387.256 233.994 386.1 232.906C384.967 231.795 384.083 230.492 383.448 228.996C382.813 227.5 382.496 225.868 382.496 224.1C382.496 222.332 382.813 220.7 383.448 219.204C384.083 217.708 384.978 216.416 386.134 215.328C387.29 214.217 388.639 213.367 390.18 212.778C391.721 212.166 393.41 211.86 395.246 211.86C397.195 211.86 398.975 212.2 400.584 212.88C402.193 213.537 403.553 214.523 404.664 215.838L401.808 218.524C400.947 217.595 399.983 216.903 398.918 216.45C397.853 215.974 396.697 215.736 395.45 215.736C394.203 215.736 393.059 215.94 392.016 216.348C390.996 216.756 390.101 217.334 389.33 218.082C388.582 218.83 387.993 219.714 387.562 220.734C387.154 221.754 386.95 222.876 386.95 224.1C386.95 225.324 387.154 226.446 387.562 227.466C387.993 228.486 388.582 229.37 389.33 230.118C390.101 230.866 390.996 231.444 392.016 231.852C393.059 232.26 394.203 232.464 395.45 232.464C396.697 232.464 397.853 232.237 398.918 231.784C399.983 231.308 400.947 230.594 401.808 229.642L404.664 232.362C403.553 233.654 402.193 234.64 400.584 235.32C398.975 236 397.184 236.34 395.212 236.34ZM419.511 236V232.328L419.273 231.546V225.12C419.273 223.873 418.899 222.91 418.151 222.23C417.403 221.527 416.27 221.176 414.751 221.176C413.731 221.176 412.722 221.335 411.725 221.652C410.75 221.969 409.923 222.411 409.243 222.978L407.577 219.884C408.552 219.136 409.708 218.581 411.045 218.218C412.405 217.833 413.81 217.64 415.261 217.64C417.89 217.64 419.919 218.275 421.347 219.544C422.798 220.791 423.523 222.729 423.523 225.358V236H419.511ZM413.799 236.238C412.439 236.238 411.249 236.011 410.229 235.558C409.209 235.082 408.416 234.436 407.849 233.62C407.305 232.781 407.033 231.841 407.033 230.798C407.033 229.778 407.271 228.86 407.747 228.044C408.246 227.228 409.05 226.582 410.161 226.106C411.272 225.63 412.745 225.392 414.581 225.392H419.851V228.214H414.887C413.436 228.214 412.462 228.452 411.963 228.928C411.464 229.381 411.215 229.948 411.215 230.628C411.215 231.399 411.521 232.011 412.133 232.464C412.745 232.917 413.595 233.144 414.683 233.144C415.726 233.144 416.655 232.906 417.471 232.43C418.31 231.954 418.91 231.251 419.273 230.322L419.987 232.872C419.579 233.937 418.842 234.765 417.777 235.354C416.734 235.943 415.408 236.238 413.799 236.238ZM428.977 236V217.844H433.023V222.842L432.547 221.38C433.091 220.156 433.941 219.227 435.097 218.592C436.276 217.957 437.738 217.64 439.483 217.64V221.686C439.302 221.641 439.132 221.618 438.973 221.618C438.815 221.595 438.656 221.584 438.497 221.584C436.888 221.584 435.607 222.06 434.655 223.012C433.703 223.941 433.227 225.335 433.227 227.194V236H428.977ZM450.607 236.238C448.861 236.238 447.286 235.853 445.881 235.082C444.498 234.289 443.41 233.201 442.617 231.818C441.823 230.435 441.427 228.803 441.427 226.922C441.427 225.041 441.823 223.409 442.617 222.026C443.41 220.643 444.498 219.567 445.881 218.796C447.286 218.025 448.861 217.64 450.607 217.64C452.125 217.64 453.485 217.98 454.687 218.66C455.888 219.317 456.84 220.326 457.543 221.686C458.245 223.046 458.597 224.791 458.597 226.922C458.597 229.03 458.257 230.775 457.577 232.158C456.897 233.518 455.956 234.538 454.755 235.218C453.553 235.898 452.171 236.238 450.607 236.238ZM451.117 232.6C452.137 232.6 453.043 232.373 453.837 231.92C454.653 231.467 455.299 230.809 455.775 229.948C456.273 229.087 456.523 228.078 456.523 226.922C456.523 225.743 456.273 224.735 455.775 223.896C455.299 223.035 454.653 222.377 453.837 221.924C453.043 221.471 452.137 221.244 451.117 221.244C450.097 221.244 449.179 221.471 448.363 221.924C447.569 222.377 446.923 223.035 446.425 223.896C445.949 224.735 445.711 225.743 445.711 226.922C445.711 228.078 445.949 229.087 446.425 229.948C446.923 230.809 447.569 231.467 448.363 231.92C449.179 232.373 450.097 232.6 451.117 232.6ZM456.625 236V231.716L456.795 226.888L456.455 222.06V210.772H460.671V236H456.625Z" fill="black"/>
<rect x="365" y="572" width="243" height="163" fill="#BCBCBC"/>
<path d="M395.212 624.34C393.399 624.34 391.71 624.045 390.146 623.456C388.605 622.844 387.256 621.994 386.1 620.906C384.967 619.795 384.083 618.492 383.448 616.996C382.813 615.5 382.496 613.868 382.496 612.1C382.496 610.332 382.813 608.7 383.448 607.204C384.083 605.708 384.978 604.416 386.134 603.328C387.29 602.217 388.639 601.367 390.18 600.778C391.721 600.166 393.41 599.86 395.246 599.86C397.195 599.86 398.975 600.2 400.584 600.88C402.193 601.537 403.553 602.523 404.664 603.838L401.808 606.524C400.947 605.595 399.983 604.903 398.918 604.45C397.853 603.974 396.697 603.736 395.45 603.736C394.203 603.736 393.059 603.94 392.016 604.348C390.996 604.756 390.101 605.334 389.33 606.082C388.582 606.83 387.993 607.714 387.562 608.734C387.154 609.754 386.95 610.876 386.95 612.1C386.95 613.324 387.154 614.446 387.562 615.466C387.993 616.486 388.582 617.37 389.33 618.118C390.101 618.866 390.996 619.444 392.016 619.852C393.059 620.26 394.203 620.464 395.45 620.464C396.697 620.464 397.853 620.237 398.918 619.784C399.983 619.308 400.947 618.594 401.808 617.642L404.664 620.362C403.553 621.654 402.193 622.64 400.584 623.32C398.975 624 397.184 624.34 395.212 624.34ZM419.511 624V620.328L419.273 619.546V613.12C419.273 611.873 418.899 610.91 418.151 610.23C417.403 609.527 416.27 609.176 414.751 609.176C413.731 609.176 412.722 609.335 411.725 609.652C410.75 609.969 409.923 610.411 409.243 610.978L407.577 607.884C408.552 607.136 409.708 606.581 411.045 606.218C412.405 605.833 413.81 605.64 415.261 605.64C417.89 605.64 419.919 606.275 421.347 607.544C422.798 608.791 423.523 610.729 423.523 613.358V624H419.511ZM413.799 624.238C412.439 624.238 411.249 624.011 410.229 623.558C409.209 623.082 408.416 622.436 407.849 621.62C407.305 620.781 407.033 619.841 407.033 618.798C407.033 617.778 407.271 616.86 407.747 616.044C408.246 615.228 409.05 614.582 410.161 614.106C411.272 613.63 412.745 613.392 414.581 613.392H419.851V616.214H414.887C413.436 616.214 412.462 616.452 411.963 616.928C411.464 617.381 411.215 617.948 411.215 618.628C411.215 619.399 411.521 620.011 412.133 620.464C412.745 620.917 413.595 621.144 414.683 621.144C415.726 621.144 416.655 620.906 417.471 620.43C418.31 619.954 418.91 619.251 419.273 618.322L419.987 620.872C419.579 621.937 418.842 622.765 417.777 623.354C416.734 623.943 415.408 624.238 413.799 624.238ZM428.977 624V605.844H433.023V610.842L432.547 609.38C433.091 608.156 433.941 607.227 435.097 606.592C436.276 605.957 437.738 605.64 439.483 605.64V609.686C439.302 609.641 439.132 609.618 438.973 609.618C438.815 609.595 438.656 609.584 438.497 609.584C436.888 609.584 435.607 610.06 434.655 611.012C433.703 611.941 433.227 613.335 433.227 615.194V624H428.977ZM450.607 624.238C448.861 624.238 447.286 623.853 445.881 623.082C444.498 622.289 443.41 621.201 442.617 619.818C441.823 618.435 441.427 616.803 441.427 614.922C441.427 613.041 441.823 611.409 442.617 610.026C443.41 608.643 444.498 607.567 445.881 606.796C447.286 606.025 448.861 605.64 450.607 605.64C452.125 605.64 453.485 605.98 454.687 606.66C455.888 607.317 456.84 608.326 457.543 609.686C458.245 611.046 458.597 612.791 458.597 614.922C458.597 617.03 458.257 618.775 457.577 620.158C456.897 621.518 455.956 622.538 454.755 623.218C453.553 623.898 452.171 624.238 450.607 624.238ZM451.117 620.6C452.137 620.6 453.043 620.373 453.837 619.92C454.653 619.467 455.299 618.809 455.775 617.948C456.273 617.087 456.523 616.078 456.523 614.922C456.523 613.743 456.273 612.735 455.775 611.896C455.299 611.035 454.653 610.377 453.837 609.924C453.043 609.471 452.137 609.244 451.117 609.244C450.097 609.244 449.179 609.471 448.363 609.924C447.569 610.377 446.923 611.035 446.425 611.896C445.949 612.735 445.711 613.743 445.711 614.922C445.711 616.078 445.949 617.087 446.425 617.948C446.923 618.809 447.569 619.467 448.363 619.92C449.179 620.373 450.097 620.6 451.117 620.6ZM456.625 624V619.716L456.795 614.888L456.455 610.06V598.772H460.671V624H456.625Z" fill="black"/>
<rect x="365" y="378" width="243" height="163" fill="#BCBCBC"/>
<path d="M395.212 430.34C393.399 430.34 391.71 430.045 390.146 429.456C388.605 428.844 387.256 427.994 386.1 426.906C384.967 425.795 384.083 424.492 383.448 422.996C382.813 421.5 382.496 419.868 382.496 418.1C382.496 416.332 382.813 414.7 383.448 413.204C384.083 411.708 384.978 410.416 386.134 409.328C387.29 408.217 388.639 407.367 390.18 406.778C391.721 406.166 393.41 405.86 395.246 405.86C397.195 405.86 398.975 406.2 400.584 406.88C402.193 407.537 403.553 408.523 404.664 409.838L401.808 412.524C400.947 411.595 399.983 410.903 398.918 410.45C397.853 409.974 396.697 409.736 395.45 409.736C394.203 409.736 393.059 409.94 392.016 410.348C390.996 410.756 390.101 411.334 389.33 412.082C388.582 412.83 387.993 413.714 387.562 414.734C387.154 415.754 386.95 416.876 386.95 418.1C386.95 419.324 387.154 420.446 387.562 421.466C387.993 422.486 388.582 423.37 389.33 424.118C390.101 424.866 390.996 425.444 392.016 425.852C393.059 426.26 394.203 426.464 395.45 426.464C396.697 426.464 397.853 426.237 398.918 425.784C399.983 425.308 400.947 424.594 401.808 423.642L404.664 426.362C403.553 427.654 402.193 428.64 400.584 429.32C398.975 430 397.184 430.34 395.212 430.34ZM419.511 430V426.328L419.273 425.546V419.12C419.273 417.873 418.899 416.91 418.151 416.23C417.403 415.527 416.27 415.176 414.751 415.176C413.731 415.176 412.722 415.335 411.725 415.652C410.75 415.969 409.923 416.411 409.243 416.978L407.577 413.884C408.552 413.136 409.708 412.581 411.045 412.218C412.405 411.833 413.81 411.64 415.261 411.64C417.89 411.64 419.919 412.275 421.347 413.544C422.798 414.791 423.523 416.729 423.523 419.358V430H419.511ZM413.799 430.238C412.439 430.238 411.249 430.011 410.229 429.558C409.209 429.082 408.416 428.436 407.849 427.62C407.305 426.781 407.033 425.841 407.033 424.798C407.033 423.778 407.271 422.86 407.747 422.044C408.246 421.228 409.05 420.582 410.161 420.106C411.272 419.63 412.745 419.392 414.581 419.392H419.851V422.214H414.887C413.436 422.214 412.462 422.452 411.963 422.928C411.464 423.381 411.215 423.948 411.215 424.628C411.215 425.399 411.521 426.011 412.133 426.464C412.745 426.917 413.595 427.144 414.683 427.144C415.726 427.144 416.655 426.906 417.471 426.43C418.31 425.954 418.91 425.251 419.273 424.322L419.987 426.872C419.579 427.937 418.842 428.765 417.777 429.354C416.734 429.943 415.408 430.238 413.799 430.238ZM428.977 430V411.844H433.023V416.842L432.547 415.38C433.091 414.156 433.941 413.227 435.097 412.592C436.276 411.957 437.738 411.64 439.483 411.64V415.686C439.302 415.641 439.132 415.618 438.973 415.618C438.815 415.595 438.656 415.584 438.497 415.584C436.888 415.584 435.607 416.06 434.655 417.012C433.703 417.941 433.227 419.335 433.227 421.194V430H428.977ZM450.607 430.238C448.861 430.238 447.286 429.853 445.881 429.082C444.498 428.289 443.41 427.201 442.617 425.818C441.823 424.435 441.427 422.803 441.427 420.922C441.427 419.041 441.823 417.409 442.617 416.026C443.41 414.643 444.498 413.567 445.881 412.796C447.286 412.025 448.861 411.64 450.607 411.64C452.125 411.64 453.485 411.98 454.687 412.66C455.888 413.317 456.84 414.326 457.543 415.686C458.245 417.046 458.597 418.791 458.597 420.922C458.597 423.03 458.257 424.775 457.577 426.158C456.897 427.518 455.956 428.538 454.755 429.218C453.553 429.898 452.171 430.238 450.607 430.238ZM451.117 426.6C452.137 426.6 453.043 426.373 453.837 425.92C454.653 425.467 455.299 424.809 455.775 423.948C456.273 423.087 456.523 422.078 456.523 420.922C456.523 419.743 456.273 418.735 455.775 417.896C455.299 417.035 454.653 416.377 453.837 415.924C453.043 415.471 452.137 415.244 451.117 415.244C450.097 415.244 449.179 415.471 448.363 415.924C447.569 416.377 446.923 417.035 446.425 417.896C445.949 418.735 445.711 419.743 445.711 420.922C445.711 422.078 445.949 423.087 446.425 423.948C446.923 424.809 447.569 425.467 448.363 425.92C449.179 426.373 450.097 426.6 451.117 426.6ZM456.625 430V425.716L456.795 420.888L456.455 416.06V404.772H460.671V430H456.625Z" fill="black"/>
<rect x="365" y="766" width="243" height="163" fill="#BCBCBC"/>
<path d="M395.212 818.34C393.399 818.34 391.71 818.045 390.146 817.456C388.605 816.844 387.256 815.994 386.1 814.906C384.967 813.795 384.083 812.492 383.448 810.996C382.813 809.5 382.496 807.868 382.496 806.1C382.496 804.332 382.813 802.7 383.448 801.204C384.083 799.708 384.978 798.416 386.134 797.328C387.29 796.217 388.639 795.367 390.18 794.778C391.721 794.166 393.41 793.86 395.246 793.86C397.195 793.86 398.975 794.2 400.584 794.88C402.193 795.537 403.553 796.523 404.664 797.838L401.808 800.524C400.947 799.595 399.983 798.903 398.918 798.45C397.853 797.974 396.697 797.736 395.45 797.736C394.203 797.736 393.059 797.94 392.016 798.348C390.996 798.756 390.101 799.334 389.33 800.082C388.582 800.83 387.993 801.714 387.562 802.734C387.154 803.754 386.95 804.876 386.95 806.1C386.95 807.324 387.154 808.446 387.562 809.466C387.993 810.486 388.582 811.37 389.33 812.118C390.101 812.866 390.996 813.444 392.016 813.852C393.059 814.26 394.203 814.464 395.45 814.464C396.697 814.464 397.853 814.237 398.918 813.784C399.983 813.308 400.947 812.594 401.808 811.642L404.664 814.362C403.553 815.654 402.193 816.64 400.584 817.32C398.975 818 397.184 818.34 395.212 818.34ZM419.511 818V814.328L419.273 813.546V807.12C419.273 805.873 418.899 804.91 418.151 804.23C417.403 803.527 416.27 803.176 414.751 803.176C413.731 803.176 412.722 803.335 411.725 803.652C410.75 803.969 409.923 804.411 409.243 804.978L407.577 801.884C408.552 801.136 409.708 800.581 411.045 800.218C412.405 799.833 413.81 799.64 415.261 799.64C417.89 799.64 419.919 800.275 421.347 801.544C422.798 802.791 423.523 804.729 423.523 807.358V818H419.511ZM413.799 818.238C412.439 818.238 411.249 818.011 410.229 817.558C409.209 817.082 408.416 816.436 407.849 815.62C407.305 814.781 407.033 813.841 407.033 812.798C407.033 811.778 407.271 810.86 407.747 810.044C408.246 809.228 409.05 808.582 410.161 808.106C411.272 807.63 412.745 807.392 414.581 807.392H419.851V810.214H414.887C413.436 810.214 412.462 810.452 411.963 810.928C411.464 811.381 411.215 811.948 411.215 812.628C411.215 813.399 411.521 814.011 412.133 814.464C412.745 814.917 413.595 815.144 414.683 815.144C415.726 815.144 416.655 814.906 417.471 814.43C418.31 813.954 418.91 813.251 419.273 812.322L419.987 814.872C419.579 815.937 418.842 816.765 417.777 817.354C416.734 817.943 415.408 818.238 413.799 818.238ZM428.977 818V799.844H433.023V804.842L432.547 803.38C433.091 802.156 433.941 801.227 435.097 800.592C436.276 799.957 437.738 799.64 439.483 799.64V803.686C439.302 803.641 439.132 803.618 438.973 803.618C438.815 803.595 438.656 803.584 438.497 803.584C436.888 803.584 435.607 804.06 434.655 805.012C433.703 805.941 433.227 807.335 433.227 809.194V818H428.977ZM450.607 818.238C448.861 818.238 447.286 817.853 445.881 817.082C444.498 816.289 443.41 815.201 442.617 813.818C441.823 812.435 441.427 810.803 441.427 808.922C441.427 807.041 441.823 805.409 442.617 804.026C443.41 802.643 444.498 801.567 445.881 800.796C447.286 800.025 448.861 799.64 450.607 799.64C452.125 799.64 453.485 799.98 454.687 800.66C455.888 801.317 456.84 802.326 457.543 803.686C458.245 805.046 458.597 806.791 458.597 808.922C458.597 811.03 458.257 812.775 457.577 814.158C456.897 815.518 455.956 816.538 454.755 817.218C453.553 817.898 452.171 818.238 450.607 818.238ZM451.117 814.6C452.137 814.6 453.043 814.373 453.837 813.92C454.653 813.467 455.299 812.809 455.775 811.948C456.273 811.087 456.523 810.078 456.523 808.922C456.523 807.743 456.273 806.735 455.775 805.896C455.299 805.035 454.653 804.377 453.837 803.924C453.043 803.471 452.137 803.244 451.117 803.244C450.097 803.244 449.179 803.471 448.363 803.924C447.569 804.377 446.923 805.035 446.425 805.896C445.949 806.735 445.711 807.743 445.711 808.922C445.711 810.078 445.949 811.087 446.425 811.948C446.923 812.809 447.569 813.467 448.363 813.92C449.179 814.373 450.097 814.6 451.117 814.6ZM456.625 818V813.716L456.795 808.888L456.455 804.06V792.772H460.671V818H456.625Z" fill="black"/>
<rect x="645" y="184" width="243" height="163" fill="#BCBCBC"/>
<path d="M675.212 236.34C673.399 236.34 671.71 236.045 670.146 235.456C668.605 234.844 667.256 233.994 666.1 232.906C664.967 231.795 664.083 230.492 663.448 228.996C662.813 227.5 662.496 225.868 662.496 224.1C662.496 222.332 662.813 220.7 663.448 219.204C664.083 217.708 664.978 216.416 666.134 215.328C667.29 214.217 668.639 213.367 670.18 212.778C671.721 212.166 673.41 211.86 675.246 211.86C677.195 211.86 678.975 212.2 680.584 212.88C682.193 213.537 683.553 214.523 684.664 215.838L681.808 218.524C680.947 217.595 679.983 216.903 678.918 216.45C677.853 215.974 676.697 215.736 675.45 215.736C674.203 215.736 673.059 215.94 672.016 216.348C670.996 216.756 670.101 217.334 669.33 218.082C668.582 218.83 667.993 219.714 667.562 220.734C667.154 221.754 666.95 222.876 666.95 224.1C666.95 225.324 667.154 226.446 667.562 227.466C667.993 228.486 668.582 229.37 669.33 230.118C670.101 230.866 670.996 231.444 672.016 231.852C673.059 232.26 674.203 232.464 675.45 232.464C676.697 232.464 677.853 232.237 678.918 231.784C679.983 231.308 680.947 230.594 681.808 229.642L684.664 232.362C683.553 233.654 682.193 234.64 680.584 235.32C678.975 236 677.184 236.34 675.212 236.34ZM699.511 236V232.328L699.273 231.546V225.12C699.273 223.873 698.899 222.91 698.151 222.23C697.403 221.527 696.27 221.176 694.751 221.176C693.731 221.176 692.722 221.335 691.725 221.652C690.75 221.969 689.923 222.411 689.243 222.978L687.577 219.884C688.552 219.136 689.708 218.581 691.045 218.218C692.405 217.833 693.81 217.64 695.261 217.64C697.89 217.64 699.919 218.275 701.347 219.544C702.798 220.791 703.523 222.729 703.523 225.358V236H699.511ZM693.799 236.238C692.439 236.238 691.249 236.011 690.229 235.558C689.209 235.082 688.416 234.436 687.849 233.62C687.305 232.781 687.033 231.841 687.033 230.798C687.033 229.778 687.271 228.86 687.747 228.044C688.246 227.228 689.05 226.582 690.161 226.106C691.272 225.63 692.745 225.392 694.581 225.392H699.851V228.214H694.887C693.436 228.214 692.462 228.452 691.963 228.928C691.464 229.381 691.215 229.948 691.215 230.628C691.215 231.399 691.521 232.011 692.133 232.464C692.745 232.917 693.595 233.144 694.683 233.144C695.726 233.144 696.655 232.906 697.471 232.43C698.31 231.954 698.91 231.251 699.273 230.322L699.987 232.872C699.579 233.937 698.842 234.765 697.777 235.354C696.734 235.943 695.408 236.238 693.799 236.238ZM708.977 236V217.844H713.023V222.842L712.547 221.38C713.091 220.156 713.941 219.227 715.097 218.592C716.276 217.957 717.738 217.64 719.483 217.64V221.686C719.302 221.641 719.132 221.618 718.973 221.618C718.815 221.595 718.656 221.584 718.497 221.584C716.888 221.584 715.607 222.06 714.655 223.012C713.703 223.941 713.227 225.335 713.227 227.194V236H708.977ZM730.607 236.238C728.861 236.238 727.286 235.853 725.881 235.082C724.498 234.289 723.41 233.201 722.617 231.818C721.823 230.435 721.427 228.803 721.427 226.922C721.427 225.041 721.823 223.409 722.617 222.026C723.41 220.643 724.498 219.567 725.881 218.796C727.286 218.025 728.861 217.64 730.607 217.64C732.125 217.64 733.485 217.98 734.687 218.66C735.888 219.317 736.84 220.326 737.543 221.686C738.245 223.046 738.597 224.791 738.597 226.922C738.597 229.03 738.257 230.775 737.577 232.158C736.897 233.518 735.956 234.538 734.755 235.218C733.553 235.898 732.171 236.238 730.607 236.238ZM731.117 232.6C732.137 232.6 733.043 232.373 733.837 231.92C734.653 231.467 735.299 230.809 735.775 229.948C736.273 229.087 736.523 228.078 736.523 226.922C736.523 225.743 736.273 224.735 735.775 223.896C735.299 223.035 734.653 222.377 733.837 221.924C733.043 221.471 732.137 221.244 731.117 221.244C730.097 221.244 729.179 221.471 728.363 221.924C727.569 222.377 726.923 223.035 726.425 223.896C725.949 224.735 725.711 225.743 725.711 226.922C725.711 228.078 725.949 229.087 726.425 229.948C726.923 230.809 727.569 231.467 728.363 231.92C729.179 232.373 730.097 232.6 731.117 232.6ZM736.625 236V231.716L736.795 226.888L736.455 222.06V210.772H740.671V236H736.625Z" fill="black"/>
<rect x="645" y="572" width="243" height="163" fill="#BCBCBC"/>
<path d="M675.212 624.34C673.399 624.34 671.71 624.045 670.146 623.456C668.605 622.844 667.256 621.994 666.1 620.906C664.967 619.795 664.083 618.492 663.448 616.996C662.813 615.5 662.496 613.868 662.496 612.1C662.496 610.332 662.813 608.7 663.448 607.204C664.083 605.708 664.978 604.416 666.134 603.328C667.29 602.217 668.639 601.367 670.18 600.778C671.721 600.166 673.41 599.86 675.246 599.86C677.195 599.86 678.975 600.2 680.584 600.88C682.193 601.537 683.553 602.523 684.664 603.838L681.808 606.524C680.947 605.595 679.983 604.903 678.918 604.45C677.853 603.974 676.697 603.736 675.45 603.736C674.203 603.736 673.059 603.94 672.016 604.348C670.996 604.756 670.101 605.334 669.33 606.082C668.582 606.83 667.993 607.714 667.562 608.734C667.154 609.754 666.95 610.876 666.95 612.1C666.95 613.324 667.154 614.446 667.562 615.466C667.993 616.486 668.582 617.37 669.33 618.118C670.101 618.866 670.996 619.444 672.016 619.852C673.059 620.26 674.203 620.464 675.45 620.464C676.697 620.464 677.853 620.237 678.918 619.784C679.983 619.308 680.947 618.594 681.808 617.642L684.664 620.362C683.553 621.654 682.193 622.64 680.584 623.32C678.975 624 677.184 624.34 675.212 624.34ZM699.511 624V620.328L699.273 619.546V613.12C699.273 611.873 698.899 610.91 698.151 610.23C697.403 609.527 696.27 609.176 694.751 609.176C693.731 609.176 692.722 609.335 691.725 609.652C690.75 609.969 689.923 610.411 689.243 610.978L687.577 607.884C688.552 607.136 689.708 606.581 691.045 606.218C692.405 605.833 693.81 605.64 695.261 605.64C697.89 605.64 699.919 606.275 701.347 607.544C702.798 608.791 703.523 610.729 703.523 613.358V624H699.511ZM693.799 624.238C692.439 624.238 691.249 624.011 690.229 623.558C689.209 623.082 688.416 622.436 687.849 621.62C687.305 620.781 687.033 619.841 687.033 618.798C687.033 617.778 687.271 616.86 687.747 616.044C688.246 615.228 689.05 614.582 690.161 614.106C691.272 613.63 692.745 613.392 694.581 613.392H699.851V616.214H694.887C693.436 616.214 692.462 616.452 691.963 616.928C691.464 617.381 691.215 617.948 691.215 618.628C691.215 619.399 691.521 620.011 692.133 620.464C692.745 620.917 693.595 621.144 694.683 621.144C695.726 621.144 696.655 620.906 697.471 620.43C698.31 619.954 698.91 619.251 699.273 618.322L699.987 620.872C699.579 621.937 698.842 622.765 697.777 623.354C696.734 623.943 695.408 624.238 693.799 624.238ZM708.977 624V605.844H713.023V610.842L712.547 609.38C713.091 608.156 713.941 607.227 715.097 606.592C716.276 605.957 717.738 605.64 719.483 605.64V609.686C719.302 609.641 719.132 609.618 718.973 609.618C718.815 609.595 718.656 609.584 718.497 609.584C716.888 609.584 715.607 610.06 714.655 611.012C713.703 611.941 713.227 613.335 713.227 615.194V624H708.977ZM730.607 624.238C728.861 624.238 727.286 623.853 725.881 623.082C724.498 622.289 723.41 621.201 722.617 619.818C721.823 618.435 721.427 616.803 721.427 614.922C721.427 613.041 721.823 611.409 722.617 610.026C723.41 608.643 724.498 607.567 725.881 606.796C727.286 606.025 728.861 605.64 730.607 605.64C732.125 605.64 733.485 605.98 734.687 606.66C735.888 607.317 736.84 608.326 737.543 609.686C738.245 611.046 738.597 612.791 738.597 614.922C738.597 617.03 738.257 618.775 737.577 620.158C736.897 621.518 735.956 622.538 734.755 623.218C733.553 623.898 732.171 624.238 730.607 624.238ZM731.117 620.6C732.137 620.6 733.043 620.373 733.837 619.92C734.653 619.467 735.299 618.809 735.775 617.948C736.273 617.087 736.523 616.078 736.523 614.922C736.523 613.743 736.273 612.735 735.775 611.896C735.299 611.035 734.653 610.377 733.837 609.924C733.043 609.471 732.137 609.244 731.117 609.244C730.097 609.244 729.179 609.471 728.363 609.924C727.569 610.377 726.923 611.035 726.425 611.896C725.949 612.735 725.711 613.743 725.711 614.922C725.711 616.078 725.949 617.087 726.425 617.948C726.923 618.809 727.569 619.467 728.363 619.92C729.179 620.373 730.097 620.6 731.117 620.6ZM736.625 624V619.716L736.795 614.888L736.455 610.06V598.772H740.671V624H736.625Z" fill="black"/>
<rect x="645" y="378" width="243" height="163" fill="#BCBCBC"/>
<path d="M675.212 430.34C673.399 430.34 671.71 430.045 670.146 429.456C668.605 428.844 667.256 427.994 666.1 426.906C664.967 425.795 664.083 424.492 663.448 422.996C662.813 421.5 662.496 419.868 662.496 418.1C662.496 416.332 662.813 414.7 663.448 413.204C664.083 411.708 664.978 410.416 666.134 409.328C667.29 408.217 668.639 407.367 670.18 406.778C671.721 406.166 673.41 405.86 675.246 405.86C677.195 405.86 678.975 406.2 680.584 406.88C682.193 407.537 683.553 408.523 684.664 409.838L681.808 412.524C680.947 411.595 679.983 410.903 678.918 410.45C677.853 409.974 676.697 409.736 675.45 409.736C674.203 409.736 673.059 409.94 672.016 410.348C670.996 410.756 670.101 411.334 669.33 412.082C668.582 412.83 667.993 413.714 667.562 414.734C667.154 415.754 666.95 416.876 666.95 418.1C666.95 419.324 667.154 420.446 667.562 421.466C667.993 422.486 668.582 423.37 669.33 424.118C670.101 424.866 670.996 425.444 672.016 425.852C673.059 426.26 674.203 426.464 675.45 426.464C676.697 426.464 677.853 426.237 678.918 425.784C679.983 425.308 680.947 424.594 681.808 423.642L684.664 426.362C683.553 427.654 682.193 428.64 680.584 429.32C678.975 430 677.184 430.34 675.212 430.34ZM699.511 430V426.328L699.273 425.546V419.12C699.273 417.873 698.899 416.91 698.151 416.23C697.403 415.527 696.27 415.176 694.751 415.176C693.731 415.176 692.722 415.335 691.725 415.652C690.75 415.969 689.923 416.411 689.243 416.978L687.577 413.884C688.552 413.136 689.708 412.581 691.045 412.218C692.405 411.833 693.81 411.64 695.261 411.64C697.89 411.64 699.919 412.275 701.347 413.544C702.798 414.791 703.523 416.729 703.523 419.358V430H699.511ZM693.799 430.238C692.439 430.238 691.249 430.011 690.229 429.558C689.209 429.082 688.416 428.436 687.849 427.62C687.305 426.781 687.033 425.841 687.033 424.798C687.033 423.778 687.271 422.86 687.747 422.044C688.246 421.228 689.05 420.582 690.161 420.106C691.272 419.63 692.745 419.392 694.581 419.392H699.851V422.214H694.887C693.436 422.214 692.462 422.452 691.963 422.928C691.464 423.381 691.215 423.948 691.215 424.628C691.215 425.399 691.521 426.011 692.133 426.464C692.745 426.917 693.595 427.144 694.683 427.144C695.726 427.144 696.655 426.906 697.471 426.43C698.31 425.954 698.91 425.251 699.273 424.322L699.987 426.872C699.579 427.937 698.842 428.765 697.777 429.354C696.734 429.943 695.408 430.238 693.799 430.238ZM708.977 430V411.844H713.023V416.842L712.547 415.38C713.091 414.156 713.941 413.227 715.097 412.592C716.276 411.957 717.738 411.64 719.483 411.64V415.686C719.302 415.641 719.132 415.618 718.973 415.618C718.815 415.595 718.656 415.584 718.497 415.584C716.888 415.584 715.607 416.06 714.655 417.012C713.703 417.941 713.227 419.335 713.227 421.194V430H708.977ZM730.607 430.238C728.861 430.238 727.286 429.853 725.881 429.082C724.498 428.289 723.41 427.201 722.617 425.818C721.823 424.435 721.427 422.803 721.427 420.922C721.427 419.041 721.823 417.409 722.617 416.026C723.41 414.643 724.498 413.567 725.881 412.796C727.286 412.025 728.861 411.64 730.607 411.64C732.125 411.64 733.485 411.98 734.687 412.66C735.888 413.317 736.84 414.326 737.543 415.686C738.245 417.046 738.597 418.791 738.597 420.922C738.597 423.03 738.257 424.775 737.577 426.158C736.897 427.518 735.956 428.538 734.755 429.218C733.553 429.898 732.171 430.238 730.607 430.238ZM731.117 426.6C732.137 426.6 733.043 426.373 733.837 425.92C734.653 425.467 735.299 424.809 735.775 423.948C736.273 423.087 736.523 422.078 736.523 420.922C736.523 419.743 736.273 418.735 735.775 417.896C735.299 417.035 734.653 416.377 733.837 415.924C733.043 415.471 732.137 415.244 731.117 415.244C730.097 415.244 729.179 415.471 728.363 415.924C727.569 416.377 726.923 417.035 726.425 417.896C725.949 418.735 725.711 419.743 725.711 420.922C725.711 422.078 725.949 423.087 726.425 423.948C726.923 424.809 727.569 425.467 728.363 425.92C729.179 426.373 730.097 426.6 731.117 426.6ZM736.625 430V425.716L736.795 420.888L736.455 416.06V404.772H740.671V430H736.625Z" fill="black"/>
<rect x="645" y="766" width="243" height="163" fill="#BCBCBC"/>
<path d="M675.212 818.34C673.399 818.34 671.71 818.045 670.146 817.456C668.605 816.844 667.256 815.994 666.1 814.906C664.967 813.795 664.083 812.492 663.448 810.996C662.813 809.5 662.496 807.868 662.496 806.1C662.496 804.332 662.813 802.7 663.448 801.204C664.083 799.708 664.978 798.416 666.134 797.328C667.29 796.217 668.639 795.367 670.18 794.778C671.721 794.166 673.41 793.86 675.246 793.86C677.195 793.86 678.975 794.2 680.584 794.88C682.193 795.537 683.553 796.523 684.664 797.838L681.808 800.524C680.947 799.595 679.983 798.903 678.918 798.45C677.853 797.974 676.697 797.736 675.45 797.736C674.203 797.736 673.059 797.94 672.016 798.348C670.996 798.756 670.101 799.334 669.33 800.082C668.582 800.83 667.993 801.714 667.562 802.734C667.154 803.754 666.95 804.876 666.95 806.1C666.95 807.324 667.154 808.446 667.562 809.466C667.993 810.486 668.582 811.37 669.33 812.118C670.101 812.866 670.996 813.444 672.016 813.852C673.059 814.26 674.203 814.464 675.45 814.464C676.697 814.464 677.853 814.237 678.918 813.784C679.983 813.308 680.947 812.594 681.808 811.642L684.664 814.362C683.553 815.654 682.193 816.64 680.584 817.32C678.975 818 677.184 818.34 675.212 818.34ZM699.511 818V814.328L699.273 813.546V807.12C699.273 805.873 698.899 804.91 698.151 804.23C697.403 803.527 696.27 803.176 694.751 803.176C693.731 803.176 692.722 803.335 691.725 803.652C690.75 803.969 689.923 804.411 689.243 804.978L687.577 801.884C688.552 801.136 689.708 800.581 691.045 800.218C692.405 799.833 693.81 799.64 695.261 799.64C697.89 799.64 699.919 800.275 701.347 801.544C702.798 802.791 703.523 804.729 703.523 807.358V818H699.511ZM693.799 818.238C692.439 818.238 691.249 818.011 690.229 817.558C689.209 817.082 688.416 816.436 687.849 815.62C687.305 814.781 687.033 813.841 687.033 812.798C687.033 811.778 687.271 810.86 687.747 810.044C688.246 809.228 689.05 808.582 690.161 808.106C691.272 807.63 692.745 807.392 694.581 807.392H699.851V810.214H694.887C693.436 810.214 692.462 810.452 691.963 810.928C691.464 811.381 691.215 811.948 691.215 812.628C691.215 813.399 691.521 814.011 692.133 814.464C692.745 814.917 693.595 815.144 694.683 815.144C695.726 815.144 696.655 814.906 697.471 814.43C698.31 813.954 698.91 813.251 699.273 812.322L699.987 814.872C699.579 815.937 698.842 816.765 697.777 817.354C696.734 817.943 695.408 818.238 693.799 818.238ZM708.977 818V799.844H713.023V804.842L712.547 803.38C713.091 802.156 713.941 801.227 715.097 800.592C716.276 799.957 717.738 799.64 719.483 799.64V803.686C719.302 803.641 719.132 803.618 718.973 803.618C718.815 803.595 718.656 803.584 718.497 803.584C716.888 803.584 715.607 804.06 714.655 805.012C713.703 805.941 713.227 807.335 713.227 809.194V818H708.977ZM730.607 818.238C728.861 818.238 727.286 817.853 725.881 817.082C724.498 816.289 723.41 815.201 722.617 813.818C721.823 812.435 721.427 810.803 721.427 808.922C721.427 807.041 721.823 805.409 722.617 804.026C723.41 802.643 724.498 801.567 725.881 800.796C727.286 800.025 728.861 799.64 730.607 799.64C732.125 799.64 733.485 799.98 734.687 800.66C735.888 801.317 736.84 802.326 737.543 803.686C738.245 805.046 738.597 806.791 738.597 808.922C738.597 811.03 738.257 812.775 737.577 814.158C736.897 815.518 735.956 816.538 734.755 817.218C733.553 817.898 732.171 818.238 730.607 818.238ZM731.117 814.6C732.137 814.6 733.043 814.373 733.837 813.92C734.653 813.467 735.299 812.809 735.775 811.948C736.273 811.087 736.523 810.078 736.523 808.922C736.523 807.743 736.273 806.735 735.775 805.896C735.299 805.035 734.653 804.377 733.837 803.924C733.043 803.471 732.137 803.244 731.117 803.244C730.097 803.244 729.179 803.471 728.363 803.924C727.569 804.377 726.923 805.035 726.425 805.896C725.949 806.735 725.711 807.743 725.711 808.922C725.711 810.078 725.949 811.087 726.425 811.948C726.923 812.809 727.569 813.467 728.363 813.92C729.179 814.373 730.097 814.6 731.117 814.6ZM736.625 818V813.716L736.795 808.888L736.455 804.06V792.772H740.671V818H736.625Z" fill="black"/>
<rect x="925" y="184" width="243" height="163" fill="#BCBCBC"/>
<path d="M955.212 236.34C953.399 236.34 951.71 236.045 950.146 235.456C948.605 234.844 947.256 233.994 946.1 232.906C944.967 231.795 944.083 230.492 943.448 228.996C942.813 227.5 942.496 225.868 942.496 224.1C942.496 222.332 942.813 220.7 943.448 219.204C944.083 217.708 944.978 216.416 946.134 215.328C947.29 214.217 948.639 213.367 950.18 212.778C951.721 212.166 953.41 211.86 955.246 211.86C957.195 211.86 958.975 212.2 960.584 212.88C962.193 213.537 963.553 214.523 964.664 215.838L961.808 218.524C960.947 217.595 959.983 216.903 958.918 216.45C957.853 215.974 956.697 215.736 955.45 215.736C954.203 215.736 953.059 215.94 952.016 216.348C950.996 216.756 950.101 217.334 949.33 218.082C948.582 218.83 947.993 219.714 947.562 220.734C947.154 221.754 946.95 222.876 946.95 224.1C946.95 225.324 947.154 226.446 947.562 227.466C947.993 228.486 948.582 229.37 949.33 230.118C950.101 230.866 950.996 231.444 952.016 231.852C953.059 232.26 954.203 232.464 955.45 232.464C956.697 232.464 957.853 232.237 958.918 231.784C959.983 231.308 960.947 230.594 961.808 229.642L964.664 232.362C963.553 233.654 962.193 234.64 960.584 235.32C958.975 236 957.184 236.34 955.212 236.34ZM979.511 236V232.328L979.273 231.546V225.12C979.273 223.873 978.899 222.91 978.151 222.23C977.403 221.527 976.27 221.176 974.751 221.176C973.731 221.176 972.722 221.335 971.725 221.652C970.75 221.969 969.923 222.411 969.243 222.978L967.577 219.884C968.552 219.136 969.708 218.581 971.045 218.218C972.405 217.833 973.81 217.64 975.261 217.64C977.89 217.64 979.919 218.275 981.347 219.544C982.798 220.791 983.523 222.729 983.523 225.358V236H979.511ZM973.799 236.238C972.439 236.238 971.249 236.011 970.229 235.558C969.209 235.082 968.416 234.436 967.849 233.62C967.305 232.781 967.033 231.841 967.033 230.798C967.033 229.778 967.271 228.86 967.747 228.044C968.246 227.228 969.05 226.582 970.161 226.106C971.272 225.63 972.745 225.392 974.581 225.392H979.851V228.214H974.887C973.436 228.214 972.462 228.452 971.963 228.928C971.464 229.381 971.215 229.948 971.215 230.628C971.215 231.399 971.521 232.011 972.133 232.464C972.745 232.917 973.595 233.144 974.683 233.144C975.726 233.144 976.655 232.906 977.471 232.43C978.31 231.954 978.91 231.251 979.273 230.322L979.987 232.872C979.579 233.937 978.842 234.765 977.777 235.354C976.734 235.943 975.408 236.238 973.799 236.238ZM988.977 236V217.844H993.023V222.842L992.547 221.38C993.091 220.156 993.941 219.227 995.097 218.592C996.276 217.957 997.738 217.64 999.483 217.64V221.686C999.302 221.641 999.132 221.618 998.973 221.618C998.815 221.595 998.656 221.584 998.497 221.584C996.888 221.584 995.607 222.06 994.655 223.012C993.703 223.941 993.227 225.335 993.227 227.194V236H988.977ZM1010.61 236.238C1008.86 236.238 1007.29 235.853 1005.88 235.082C1004.5 234.289 1003.41 233.201 1002.62 231.818C1001.82 230.435 1001.43 228.803 1001.43 226.922C1001.43 225.041 1001.82 223.409 1002.62 222.026C1003.41 220.643 1004.5 219.567 1005.88 218.796C1007.29 218.025 1008.86 217.64 1010.61 217.64C1012.13 217.64 1013.49 217.98 1014.69 218.66C1015.89 219.317 1016.84 220.326 1017.54 221.686C1018.25 223.046 1018.6 224.791 1018.6 226.922C1018.6 229.03 1018.26 230.775 1017.58 232.158C1016.9 233.518 1015.96 234.538 1014.75 235.218C1013.55 235.898 1012.17 236.238 1010.61 236.238ZM1011.12 232.6C1012.14 232.6 1013.04 232.373 1013.84 231.92C1014.65 231.467 1015.3 230.809 1015.77 229.948C1016.27 229.087 1016.52 228.078 1016.52 226.922C1016.52 225.743 1016.27 224.735 1015.77 223.896C1015.3 223.035 1014.65 222.377 1013.84 221.924C1013.04 221.471 1012.14 221.244 1011.12 221.244C1010.1 221.244 1009.18 221.471 1008.36 221.924C1007.57 222.377 1006.92 223.035 1006.42 223.896C1005.95 224.735 1005.71 225.743 1005.71 226.922C1005.71 228.078 1005.95 229.087 1006.42 229.948C1006.92 230.809 1007.57 231.467 1008.36 231.92C1009.18 232.373 1010.1 232.6 1011.12 232.6ZM1016.62 236V231.716L1016.79 226.888L1016.45 222.06V210.772H1020.67V236H1016.62Z" fill="black"/>
<rect x="925" y="572" width="243" height="163" fill="#BCBCBC"/>
<path d="M955.212 624.34C953.399 624.34 951.71 624.045 950.146 623.456C948.605 622.844 947.256 621.994 946.1 620.906C944.967 619.795 944.083 618.492 943.448 616.996C942.813 615.5 942.496 613.868 942.496 612.1C942.496 610.332 942.813 608.7 943.448 607.204C944.083 605.708 944.978 604.416 946.134 603.328C947.29 602.217 948.639 601.367 950.18 600.778C951.721 600.166 953.41 599.86 955.246 599.86C957.195 599.86 958.975 600.2 960.584 600.88C962.193 601.537 963.553 602.523 964.664 603.838L961.808 606.524C960.947 605.595 959.983 604.903 958.918 604.45C957.853 603.974 956.697 603.736 955.45 603.736C954.203 603.736 953.059 603.94 952.016 604.348C950.996 604.756 950.101 605.334 949.33 606.082C948.582 606.83 947.993 607.714 947.562 608.734C947.154 609.754 946.95 610.876 946.95 612.1C946.95 613.324 947.154 614.446 947.562 615.466C947.993 616.486 948.582 617.37 949.33 618.118C950.101 618.866 950.996 619.444 952.016 619.852C953.059 620.26 954.203 620.464 955.45 620.464C956.697 620.464 957.853 620.237 958.918 619.784C959.983 619.308 960.947 618.594 961.808 617.642L964.664 620.362C963.553 621.654 962.193 622.64 960.584 623.32C958.975 624 957.184 624.34 955.212 624.34ZM979.511 624V620.328L979.273 619.546V613.12C979.273 611.873 978.899 610.91 978.151 610.23C977.403 609.527 976.27 609.176 974.751 609.176C973.731 609.176 972.722 609.335 971.725 609.652C970.75 609.969 969.923 610.411 969.243 610.978L967.577 607.884C968.552 607.136 969.708 606.581 971.045 606.218C972.405 605.833 973.81 605.64 975.261 605.64C977.89 605.64 979.919 606.275 981.347 607.544C982.798 608.791 983.523 610.729 983.523 613.358V624H979.511ZM973.799 624.238C972.439 624.238 971.249 624.011 970.229 623.558C969.209 623.082 968.416 622.436 967.849 621.62C967.305 620.781 967.033 619.841 967.033 618.798C967.033 617.778 967.271 616.86 967.747 616.044C968.246 615.228 969.05 614.582 970.161 614.106C971.272 613.63 972.745 613.392 974.581 613.392H979.851V616.214H974.887C973.436 616.214 972.462 616.452 971.963 616.928C971.464 617.381 971.215 617.948 971.215 618.628C971.215 619.399 971.521 620.011 972.133 620.464C972.745 620.917 973.595 621.144 974.683 621.144C975.726 621.144 976.655 620.906 977.471 620.43C978.31 619.954 978.91 619.251 979.273 618.322L979.987 620.872C979.579 621.937 978.842 622.765 977.777 623.354C976.734 623.943 975.408 624.238 973.799 624.238ZM988.977 624V605.844H993.023V610.842L992.547 609.38C993.091 608.156 993.941 607.227 995.097 606.592C996.276 605.957 997.738 605.64 999.483 605.64V609.686C999.302 609.641 999.132 609.618 998.973 609.618C998.815 609.595 998.656 609.584 998.497 609.584C996.888 609.584 995.607 610.06 994.655 611.012C993.703 611.941 993.227 613.335 993.227 615.194V624H988.977ZM1010.61 624.238C1008.86 624.238 1007.29 623.853 1005.88 623.082C1004.5 622.289 1003.41 621.201 1002.62 619.818C1001.82 618.435 1001.43 616.803 1001.43 614.922C1001.43 613.041 1001.82 611.409 1002.62 610.026C1003.41 608.643 1004.5 607.567 1005.88 606.796C1007.29 606.025 1008.86 605.64 1010.61 605.64C1012.13 605.64 1013.49 605.98 1014.69 606.66C1015.89 607.317 1016.84 608.326 1017.54 609.686C1018.25 611.046 1018.6 612.791 1018.6 614.922C1018.6 617.03 1018.26 618.775 1017.58 620.158C1016.9 621.518 1015.96 622.538 1014.75 623.218C1013.55 623.898 1012.17 624.238 1010.61 624.238ZM1011.12 620.6C1012.14 620.6 1013.04 620.373 1013.84 619.92C1014.65 619.467 1015.3 618.809 1015.77 617.948C1016.27 617.087 1016.52 616.078 1016.52 614.922C1016.52 613.743 1016.27 612.735 1015.77 611.896C1015.3 611.035 1014.65 610.377 1013.84 609.924C1013.04 609.471 1012.14 609.244 1011.12 609.244C1010.1 609.244 1009.18 609.471 1008.36 609.924C1007.57 610.377 1006.92 611.035 1006.42 611.896C1005.95 612.735 1005.71 613.743 1005.71 614.922C1005.71 616.078 1005.95 617.087 1006.42 617.948C1006.92 618.809 1007.57 619.467 1008.36 619.92C1009.18 620.373 1010.1 620.6 1011.12 620.6ZM1016.62 624V619.716L1016.79 614.888L1016.45 610.06V598.772H1020.67V624H1016.62Z" fill="black"/>
<rect x="925" y="378" width="243" height="163" fill="#BCBCBC"/>
<path d="M955.212 430.34C953.399 430.34 951.71 430.045 950.146 429.456C948.605 428.844 947.256 427.994 946.1 426.906C944.967 425.795 944.083 424.492 943.448 422.996C942.813 421.5 942.496 419.868 942.496 418.1C942.496 416.332 942.813 414.7 943.448 413.204C944.083 411.708 944.978 410.416 946.134 409.328C947.29 408.217 948.639 407.367 950.18 406.778C951.721 406.166 953.41 405.86 955.246 405.86C957.195 405.86 958.975 406.2 960.584 406.88C962.193 407.537 963.553 408.523 964.664 409.838L961.808 412.524C960.947 411.595 959.983 410.903 958.918 410.45C957.853 409.974 956.697 409.736 955.45 409.736C954.203 409.736 953.059 409.94 952.016 410.348C950.996 410.756 950.101 411.334 949.33 412.082C948.582 412.83 947.993 413.714 947.562 414.734C947.154 415.754 946.95 416.876 946.95 418.1C946.95 419.324 947.154 420.446 947.562 421.466C947.993 422.486 948.582 423.37 949.33 424.118C950.101 424.866 950.996 425.444 952.016 425.852C953.059 426.26 954.203 426.464 955.45 426.464C956.697 426.464 957.853 426.237 958.918 425.784C959.983 425.308 960.947 424.594 961.808 423.642L964.664 426.362C963.553 427.654 962.193 428.64 960.584 429.32C958.975 430 957.184 430.34 955.212 430.34ZM979.511 430V426.328L979.273 425.546V419.12C979.273 417.873 978.899 416.91 978.151 416.23C977.403 415.527 976.27 415.176 974.751 415.176C973.731 415.176 972.722 415.335 971.725 415.652C970.75 415.969 969.923 416.411 969.243 416.978L967.577 413.884C968.552 413.136 969.708 412.581 971.045 412.218C972.405 411.833 973.81 411.64 975.261 411.64C977.89 411.64 979.919 412.275 981.347 413.544C982.798 414.791 983.523 416.729 983.523 419.358V430H979.511ZM973.799 430.238C972.439 430.238 971.249 430.011 970.229 429.558C969.209 429.082 968.416 428.436 967.849 427.62C967.305 426.781 967.033 425.841 967.033 424.798C967.033 423.778 967.271 422.86 967.747 422.044C968.246 421.228 969.05 420.582 970.161 420.106C971.272 419.63 972.745 419.392 974.581 419.392H979.851V422.214H974.887C973.436 422.214 972.462 422.452 971.963 422.928C971.464 423.381 971.215 423.948 971.215 424.628C971.215 425.399 971.521 426.011 972.133 426.464C972.745 426.917 973.595 427.144 974.683 427.144C975.726 427.144 976.655 426.906 977.471 426.43C978.31 425.954 978.91 425.251 979.273 424.322L979.987 426.872C979.579 427.937 978.842 428.765 977.777 429.354C976.734 429.943 975.408 430.238 973.799 430.238ZM988.977 430V411.844H993.023V416.842L992.547 415.38C993.091 414.156 993.941 413.227 995.097 412.592C996.276 411.957 997.738 411.64 999.483 411.64V415.686C999.302 415.641 999.132 415.618 998.973 415.618C998.815 415.595 998.656 415.584 998.497 415.584C996.888 415.584 995.607 416.06 994.655 417.012C993.703 417.941 993.227 419.335 993.227 421.194V430H988.977ZM1010.61 430.238C1008.86 430.238 1007.29 429.853 1005.88 429.082C1004.5 428.289 1003.41 427.201 1002.62 425.818C1001.82 424.435 1001.43 422.803 1001.43 420.922C1001.43 419.041 1001.82 417.409 1002.62 416.026C1003.41 414.643 1004.5 413.567 1005.88 412.796C1007.29 412.025 1008.86 411.64 1010.61 411.64C1012.13 411.64 1013.49 411.98 1014.69 412.66C1015.89 413.317 1016.84 414.326 1017.54 415.686C1018.25 417.046 1018.6 418.791 1018.6 420.922C1018.6 423.03 1018.26 424.775 1017.58 426.158C1016.9 427.518 1015.96 428.538 1014.75 429.218C1013.55 429.898 1012.17 430.238 1010.61 430.238ZM1011.12 426.6C1012.14 426.6 1013.04 426.373 1013.84 425.92C1014.65 425.467 1015.3 424.809 1015.77 423.948C1016.27 423.087 1016.52 422.078 1016.52 420.922C1016.52 419.743 1016.27 418.735 1015.77 417.896C1015.3 417.035 1014.65 416.377 1013.84 415.924C1013.04 415.471 1012.14 415.244 1011.12 415.244C1010.1 415.244 1009.18 415.471 1008.36 415.924C1007.57 416.377 1006.92 417.035 1006.42 417.896C1005.95 418.735 1005.71 419.743 1005.71 420.922C1005.71 422.078 1005.95 423.087 1006.42 423.948C1006.92 424.809 1007.57 425.467 1008.36 425.92C1009.18 426.373 1010.1 426.6 1011.12 426.6ZM1016.62 430V425.716L1016.79 420.888L1016.45 416.06V404.772H1020.67V430H1016.62Z" fill="black"/>
<rect x="925" y="766" width="243" height="163" fill="#BCBCBC"/>
<path d="M955.212 818.34C953.399 818.34 951.71 818.045 950.146 817.456C948.605 816.844 947.256 815.994 946.1 814.906C944.967 813.795 944.083 812.492 943.448 810.996C942.813 809.5 942.496 807.868 942.496 806.1C942.496 804.332 942.813 802.7 943.448 801.204C944.083 799.708 944.978 798.416 946.134 797.328C947.29 796.217 948.639 795.367 950.18 794.778C951.721 794.166 953.41 793.86 955.246 793.86C957.195 793.86 958.975 794.2 960.584 794.88C962.193 795.537 963.553 796.523 964.664 797.838L961.808 800.524C960.947 799.595 959.983 798.903 958.918 798.45C957.853 797.974 956.697 797.736 955.45 797.736C954.203 797.736 953.059 797.94 952.016 798.348C950.996 798.756 950.101 799.334 949.33 800.082C948.582 800.83 947.993 801.714 947.562 802.734C947.154 803.754 946.95 804.876 946.95 806.1C946.95 807.324 947.154 808.446 947.562 809.466C947.993 810.486 948.582 811.37 949.33 812.118C950.101 812.866 950.996 813.444 952.016 813.852C953.059 814.26 954.203 814.464 955.45 814.464C956.697 814.464 957.853 814.237 958.918 813.784C959.983 813.308 960.947 812.594 961.808 811.642L964.664 814.362C963.553 815.654 962.193 816.64 960.584 817.32C958.975 818 957.184 818.34 955.212 818.34ZM979.511 818V814.328L979.273 813.546V807.12C979.273 805.873 978.899 804.91 978.151 804.23C977.403 803.527 976.27 803.176 974.751 803.176C973.731 803.176 972.722 803.335 971.725 803.652C970.75 803.969 969.923 804.411 969.243 804.978L967.577 801.884C968.552 801.136 969.708 800.581 971.045 800.218C972.405 799.833 973.81 799.64 975.261 799.64C977.89 799.64 979.919 800.275 981.347 801.544C982.798 802.791 983.523 804.729 983.523 807.358V818H979.511ZM973.799 818.238C972.439 818.238 971.249 818.011 970.229 817.558C969.209 817.082 968.416 816.436 967.849 815.62C967.305 814.781 967.033 813.841 967.033 812.798C967.033 811.778 967.271 810.86 967.747 810.044C968.246 809.228 969.05 808.582 970.161 808.106C971.272 807.63 972.745 807.392 974.581 807.392H979.851V810.214H974.887C973.436 810.214 972.462 810.452 971.963 810.928C971.464 811.381 971.215 811.948 971.215 812.628C971.215 813.399 971.521 814.011 972.133 814.464C972.745 814.917 973.595 815.144 974.683 815.144C975.726 815.144 976.655 814.906 977.471 814.43C978.31 813.954 978.91 813.251 979.273 812.322L979.987 814.872C979.579 815.937 978.842 816.765 977.777 817.354C976.734 817.943 975.408 818.238 973.799 818.238ZM988.977 818V799.844H993.023V804.842L992.547 803.38C993.091 802.156 993.941 801.227 995.097 800.592C996.276 799.957 997.738 799.64 999.483 799.64V803.686C999.302 803.641 999.132 803.618 998.973 803.618C998.815 803.595 998.656 803.584 998.497 803.584C996.888 803.584 995.607 804.06 994.655 805.012C993.703 805.941 993.227 807.335 993.227 809.194V818H988.977ZM1010.61 818.238C1008.86 818.238 1007.29 817.853 1005.88 817.082C1004.5 816.289 1003.41 815.201 1002.62 813.818C1001.82 812.435 1001.43 810.803 1001.43 808.922C1001.43 807.041 1001.82 805.409 1002.62 804.026C1003.41 802.643 1004.5 801.567 1005.88 800.796C1007.29 800.025 1008.86 799.64 1010.61 799.64C1012.13 799.64 1013.49 799.98 1014.69 800.66C1015.89 801.317 1016.84 802.326 1017.54 803.686C1018.25 805.046 1018.6 806.791 1018.6 808.922C1018.6 811.03 1018.26 812.775 1017.58 814.158C1016.9 815.518 1015.96 816.538 1014.75 817.218C1013.55 817.898 1012.17 818.238 1010.61 818.238ZM1011.12 814.6C1012.14 814.6 1013.04 814.373 1013.84 813.92C1014.65 813.467 1015.3 812.809 1015.77 811.948C1016.27 811.087 1016.52 810.078 1016.52 808.922C1016.52 807.743 1016.27 806.735 1015.77 805.896C1015.3 805.035 1014.65 804.377 1013.84 803.924C1013.04 803.471 1012.14 803.244 1011.12 803.244C1010.1 803.244 1009.18 803.471 1008.36 803.924C1007.57 804.377 1006.92 805.035 1006.42 805.896C1005.95 806.735 1005.71 807.743 1005.71 808.922C1005.71 810.078 1005.95 811.087 1006.42 811.948C1006.92 812.809 1007.57 813.467 1008.36 813.92C1009.18 814.373 1010.1 814.6 1011.12 814.6ZM1016.62 818V813.716L1016.79 808.888L1016.45 804.06V792.772H1020.67V818H1016.62Z" fill="black"/>
<rect x="1205" y="184" width="243" height="163" fill="#BCBCBC"/>
<path d="M1235.21 236.34C1233.4 236.34 1231.71 236.045 1230.15 235.456C1228.6 234.844 1227.26 233.994 1226.1 232.906C1224.97 231.795 1224.08 230.492 1223.45 228.996C1222.81 227.5 1222.5 225.868 1222.5 224.1C1222.5 222.332 1222.81 220.7 1223.45 219.204C1224.08 217.708 1224.98 216.416 1226.13 215.328C1227.29 214.217 1228.64 213.367 1230.18 212.778C1231.72 212.166 1233.41 211.86 1235.25 211.86C1237.2 211.86 1238.97 212.2 1240.58 212.88C1242.19 213.537 1243.55 214.523 1244.66 215.838L1241.81 218.524C1240.95 217.595 1239.98 216.903 1238.92 216.45C1237.85 215.974 1236.7 215.736 1235.45 215.736C1234.2 215.736 1233.06 215.94 1232.02 216.348C1231 216.756 1230.1 217.334 1229.33 218.082C1228.58 218.83 1227.99 219.714 1227.56 220.734C1227.15 221.754 1226.95 222.876 1226.95 224.1C1226.95 225.324 1227.15 226.446 1227.56 227.466C1227.99 228.486 1228.58 229.37 1229.33 230.118C1230.1 230.866 1231 231.444 1232.02 231.852C1233.06 232.26 1234.2 232.464 1235.45 232.464C1236.7 232.464 1237.85 232.237 1238.92 231.784C1239.98 231.308 1240.95 230.594 1241.81 229.642L1244.66 232.362C1243.55 233.654 1242.19 234.64 1240.58 235.32C1238.97 236 1237.18 236.34 1235.21 236.34ZM1259.51 236V232.328L1259.27 231.546V225.12C1259.27 223.873 1258.9 222.91 1258.15 222.23C1257.4 221.527 1256.27 221.176 1254.75 221.176C1253.73 221.176 1252.72 221.335 1251.73 221.652C1250.75 221.969 1249.92 222.411 1249.24 222.978L1247.58 219.884C1248.55 219.136 1249.71 218.581 1251.05 218.218C1252.41 217.833 1253.81 217.64 1255.26 217.64C1257.89 217.64 1259.92 218.275 1261.35 219.544C1262.8 220.791 1263.52 222.729 1263.52 225.358V236H1259.51ZM1253.8 236.238C1252.44 236.238 1251.25 236.011 1250.23 235.558C1249.21 235.082 1248.42 234.436 1247.85 233.62C1247.31 232.781 1247.03 231.841 1247.03 230.798C1247.03 229.778 1247.27 228.86 1247.75 228.044C1248.25 227.228 1249.05 226.582 1250.16 226.106C1251.27 225.63 1252.75 225.392 1254.58 225.392H1259.85V228.214H1254.89C1253.44 228.214 1252.46 228.452 1251.96 228.928C1251.46 229.381 1251.22 229.948 1251.22 230.628C1251.22 231.399 1251.52 232.011 1252.13 232.464C1252.75 232.917 1253.6 233.144 1254.68 233.144C1255.73 233.144 1256.66 232.906 1257.47 232.43C1258.31 231.954 1258.91 231.251 1259.27 230.322L1259.99 232.872C1259.58 233.937 1258.84 234.765 1257.78 235.354C1256.73 235.943 1255.41 236.238 1253.8 236.238ZM1268.98 236V217.844H1273.02V222.842L1272.55 221.38C1273.09 220.156 1273.94 219.227 1275.1 218.592C1276.28 217.957 1277.74 217.64 1279.48 217.64V221.686C1279.3 221.641 1279.13 221.618 1278.97 221.618C1278.81 221.595 1278.66 221.584 1278.5 221.584C1276.89 221.584 1275.61 222.06 1274.66 223.012C1273.7 223.941 1273.23 225.335 1273.23 227.194V236H1268.98ZM1290.61 236.238C1288.86 236.238 1287.29 235.853 1285.88 235.082C1284.5 234.289 1283.41 233.201 1282.62 231.818C1281.82 230.435 1281.43 228.803 1281.43 226.922C1281.43 225.041 1281.82 223.409 1282.62 222.026C1283.41 220.643 1284.5 219.567 1285.88 218.796C1287.29 218.025 1288.86 217.64 1290.61 217.64C1292.13 217.64 1293.49 217.98 1294.69 218.66C1295.89 219.317 1296.84 220.326 1297.54 221.686C1298.25 223.046 1298.6 224.791 1298.6 226.922C1298.6 229.03 1298.26 230.775 1297.58 232.158C1296.9 233.518 1295.96 234.538 1294.75 235.218C1293.55 235.898 1292.17 236.238 1290.61 236.238ZM1291.12 232.6C1292.14 232.6 1293.04 232.373 1293.84 231.92C1294.65 231.467 1295.3 230.809 1295.77 229.948C1296.27 229.087 1296.52 228.078 1296.52 226.922C1296.52 225.743 1296.27 224.735 1295.77 223.896C1295.3 223.035 1294.65 222.377 1293.84 221.924C1293.04 221.471 1292.14 221.244 1291.12 221.244C1290.1 221.244 1289.18 221.471 1288.36 221.924C1287.57 222.377 1286.92 223.035 1286.42 223.896C1285.95 224.735 1285.71 225.743 1285.71 226.922C1285.71 228.078 1285.95 229.087 1286.42 229.948C1286.92 230.809 1287.57 231.467 1288.36 231.92C1289.18 232.373 1290.1 232.6 1291.12 232.6ZM1296.62 236V231.716L1296.79 226.888L1296.45 222.06V210.772H1300.67V236H1296.62Z" fill="black"/>
<rect x="1205" y="572" width="243" height="163" fill="#BCBCBC"/>
<path d="M1235.21 624.34C1233.4 624.34 1231.71 624.045 1230.15 623.456C1228.6 622.844 1227.26 621.994 1226.1 620.906C1224.97 619.795 1224.08 618.492 1223.45 616.996C1222.81 615.5 1222.5 613.868 1222.5 612.1C1222.5 610.332 1222.81 608.7 1223.45 607.204C1224.08 605.708 1224.98 604.416 1226.13 603.328C1227.29 602.217 1228.64 601.367 1230.18 600.778C1231.72 600.166 1233.41 599.86 1235.25 599.86C1237.2 599.86 1238.97 600.2 1240.58 600.88C1242.19 601.537 1243.55 602.523 1244.66 603.838L1241.81 606.524C1240.95 605.595 1239.98 604.903 1238.92 604.45C1237.85 603.974 1236.7 603.736 1235.45 603.736C1234.2 603.736 1233.06 603.94 1232.02 604.348C1231 604.756 1230.1 605.334 1229.33 606.082C1228.58 606.83 1227.99 607.714 1227.56 608.734C1227.15 609.754 1226.95 610.876 1226.95 612.1C1226.95 613.324 1227.15 614.446 1227.56 615.466C1227.99 616.486 1228.58 617.37 1229.33 618.118C1230.1 618.866 1231 619.444 1232.02 619.852C1233.06 620.26 1234.2 620.464 1235.45 620.464C1236.7 620.464 1237.85 620.237 1238.92 619.784C1239.98 619.308 1240.95 618.594 1241.81 617.642L1244.66 620.362C1243.55 621.654 1242.19 622.64 1240.58 623.32C1238.97 624 1237.18 624.34 1235.21 624.34ZM1259.51 624V620.328L1259.27 619.546V613.12C1259.27 611.873 1258.9 610.91 1258.15 610.23C1257.4 609.527 1256.27 609.176 1254.75 609.176C1253.73 609.176 1252.72 609.335 1251.73 609.652C1250.75 609.969 1249.92 610.411 1249.24 610.978L1247.58 607.884C1248.55 607.136 1249.71 606.581 1251.05 606.218C1252.41 605.833 1253.81 605.64 1255.26 605.64C1257.89 605.64 1259.92 606.275 1261.35 607.544C1262.8 608.791 1263.52 610.729 1263.52 613.358V624H1259.51ZM1253.8 624.238C1252.44 624.238 1251.25 624.011 1250.23 623.558C1249.21 623.082 1248.42 622.436 1247.85 621.62C1247.31 620.781 1247.03 619.841 1247.03 618.798C1247.03 617.778 1247.27 616.86 1247.75 616.044C1248.25 615.228 1249.05 614.582 1250.16 614.106C1251.27 613.63 1252.75 613.392 1254.58 613.392H1259.85V616.214H1254.89C1253.44 616.214 1252.46 616.452 1251.96 616.928C1251.46 617.381 1251.22 617.948 1251.22 618.628C1251.22 619.399 1251.52 620.011 1252.13 620.464C1252.75 620.917 1253.6 621.144 1254.68 621.144C1255.73 621.144 1256.66 620.906 1257.47 620.43C1258.31 619.954 1258.91 619.251 1259.27 618.322L1259.99 620.872C1259.58 621.937 1258.84 622.765 1257.78 623.354C1256.73 623.943 1255.41 624.238 1253.8 624.238ZM1268.98 624V605.844H1273.02V610.842L1272.55 609.38C1273.09 608.156 1273.94 607.227 1275.1 606.592C1276.28 605.957 1277.74 605.64 1279.48 605.64V609.686C1279.3 609.641 1279.13 609.618 1278.97 609.618C1278.81 609.595 1278.66 609.584 1278.5 609.584C1276.89 609.584 1275.61 610.06 1274.66 611.012C1273.7 611.941 1273.23 613.335 1273.23 615.194V624H1268.98ZM1290.61 624.238C1288.86 624.238 1287.29 623.853 1285.88 623.082C1284.5 622.289 1283.41 621.201 1282.62 619.818C1281.82 618.435 1281.43 616.803 1281.43 614.922C1281.43 613.041 1281.82 611.409 1282.62 610.026C1283.41 608.643 1284.5 607.567 1285.88 606.796C1287.29 606.025 1288.86 605.64 1290.61 605.64C1292.13 605.64 1293.49 605.98 1294.69 606.66C1295.89 607.317 1296.84 608.326 1297.54 609.686C1298.25 611.046 1298.6 612.791 1298.6 614.922C1298.6 617.03 1298.26 618.775 1297.58 620.158C1296.9 621.518 1295.96 622.538 1294.75 623.218C1293.55 623.898 1292.17 624.238 1290.61 624.238ZM1291.12 620.6C1292.14 620.6 1293.04 620.373 1293.84 619.92C1294.65 619.467 1295.3 618.809 1295.77 617.948C1296.27 617.087 1296.52 616.078 1296.52 614.922C1296.52 613.743 1296.27 612.735 1295.77 611.896C1295.3 611.035 1294.65 610.377 1293.84 609.924C1293.04 609.471 1292.14 609.244 1291.12 609.244C1290.1 609.244 1289.18 609.471 1288.36 609.924C1287.57 610.377 1286.92 611.035 1286.42 611.896C1285.95 612.735 1285.71 613.743 1285.71 614.922C1285.71 616.078 1285.95 617.087 1286.42 617.948C1286.92 618.809 1287.57 619.467 1288.36 619.92C1289.18 620.373 1290.1 620.6 1291.12 620.6ZM1296.62 624V619.716L1296.79 614.888L1296.45 610.06V598.772H1300.67V624H1296.62Z" fill="black"/>
<rect x="1205" y="378" width="243" height="163" fill="#BCBCBC"/>
<path d="M1235.21 430.34C1233.4 430.34 1231.71 430.045 1230.15 429.456C1228.6 428.844 1227.26 427.994 1226.1 426.906C1224.97 425.795 1224.08 424.492 1223.45 422.996C1222.81 421.5 1222.5 419.868 1222.5 418.1C1222.5 416.332 1222.81 414.7 1223.45 413.204C1224.08 411.708 1224.98 410.416 1226.13 409.328C1227.29 408.217 1228.64 407.367 1230.18 406.778C1231.72 406.166 1233.41 405.86 1235.25 405.86C1237.2 405.86 1238.97 406.2 1240.58 406.88C1242.19 407.537 1243.55 408.523 1244.66 409.838L1241.81 412.524C1240.95 411.595 1239.98 410.903 1238.92 410.45C1237.85 409.974 1236.7 409.736 1235.45 409.736C1234.2 409.736 1233.06 409.94 1232.02 410.348C1231 410.756 1230.1 411.334 1229.33 412.082C1228.58 412.83 1227.99 413.714 1227.56 414.734C1227.15 415.754 1226.95 416.876 1226.95 418.1C1226.95 419.324 1227.15 420.446 1227.56 421.466C1227.99 422.486 1228.58 423.37 1229.33 424.118C1230.1 424.866 1231 425.444 1232.02 425.852C1233.06 426.26 1234.2 426.464 1235.45 426.464C1236.7 426.464 1237.85 426.237 1238.92 425.784C1239.98 425.308 1240.95 424.594 1241.81 423.642L1244.66 426.362C1243.55 427.654 1242.19 428.64 1240.58 429.32C1238.97 430 1237.18 430.34 1235.21 430.34ZM1259.51 430V426.328L1259.27 425.546V419.12C1259.27 417.873 1258.9 416.91 1258.15 416.23C1257.4 415.527 1256.27 415.176 1254.75 415.176C1253.73 415.176 1252.72 415.335 1251.73 415.652C1250.75 415.969 1249.92 416.411 1249.24 416.978L1247.58 413.884C1248.55 413.136 1249.71 412.581 1251.05 412.218C1252.41 411.833 1253.81 411.64 1255.26 411.64C1257.89 411.64 1259.92 412.275 1261.35 413.544C1262.8 414.791 1263.52 416.729 1263.52 419.358V430H1259.51ZM1253.8 430.238C1252.44 430.238 1251.25 430.011 1250.23 429.558C1249.21 429.082 1248.42 428.436 1247.85 427.62C1247.31 426.781 1247.03 425.841 1247.03 424.798C1247.03 423.778 1247.27 422.86 1247.75 422.044C1248.25 421.228 1249.05 420.582 1250.16 420.106C1251.27 419.63 1252.75 419.392 1254.58 419.392H1259.85V422.214H1254.89C1253.44 422.214 1252.46 422.452 1251.96 422.928C1251.46 423.381 1251.22 423.948 1251.22 424.628C1251.22 425.399 1251.52 426.011 1252.13 426.464C1252.75 426.917 1253.6 427.144 1254.68 427.144C1255.73 427.144 1256.66 426.906 1257.47 426.43C1258.31 425.954 1258.91 425.251 1259.27 424.322L1259.99 426.872C1259.58 427.937 1258.84 428.765 1257.78 429.354C1256.73 429.943 1255.41 430.238 1253.8 430.238ZM1268.98 430V411.844H1273.02V416.842L1272.55 415.38C1273.09 414.156 1273.94 413.227 1275.1 412.592C1276.28 411.957 1277.74 411.64 1279.48 411.64V415.686C1279.3 415.641 1279.13 415.618 1278.97 415.618C1278.81 415.595 1278.66 415.584 1278.5 415.584C1276.89 415.584 1275.61 416.06 1274.66 417.012C1273.7 417.941 1273.23 419.335 1273.23 421.194V430H1268.98ZM1290.61 430.238C1288.86 430.238 1287.29 429.853 1285.88 429.082C1284.5 428.289 1283.41 427.201 1282.62 425.818C1281.82 424.435 1281.43 422.803 1281.43 420.922C1281.43 419.041 1281.82 417.409 1282.62 416.026C1283.41 414.643 1284.5 413.567 1285.88 412.796C1287.29 412.025 1288.86 411.64 1290.61 411.64C1292.13 411.64 1293.49 411.98 1294.69 412.66C1295.89 413.317 1296.84 414.326 1297.54 415.686C1298.25 417.046 1298.6 418.791 1298.6 420.922C1298.6 423.03 1298.26 424.775 1297.58 426.158C1296.9 427.518 1295.96 428.538 1294.75 429.218C1293.55 429.898 1292.17 430.238 1290.61 430.238ZM1291.12 426.6C1292.14 426.6 1293.04 426.373 1293.84 425.92C1294.65 425.467 1295.3 424.809 1295.77 423.948C1296.27 423.087 1296.52 422.078 1296.52 420.922C1296.52 419.743 1296.27 418.735 1295.77 417.896C1295.3 417.035 1294.65 416.377 1293.84 415.924C1293.04 415.471 1292.14 415.244 1291.12 415.244C1290.1 415.244 1289.18 415.471 1288.36 415.924C1287.57 416.377 1286.92 417.035 1286.42 417.896C1285.95 418.735 1285.71 419.743 1285.71 420.922C1285.71 422.078 1285.95 423.087 1286.42 423.948C1286.92 424.809 1287.57 425.467 1288.36 425.92C1289.18 426.373 1290.1 426.6 1291.12 426.6ZM1296.62 430V425.716L1296.79 420.888L1296.45 416.06V404.772H1300.67V430H1296.62Z" fill="black"/>
<rect x="1205" y="766" width="243" height="163" fill="#BCBCBC"/>
<path d="M1235.21 818.34C1233.4 818.34 1231.71 818.045 1230.15 817.456C1228.6 816.844 1227.26 815.994 1226.1 814.906C1224.97 813.795 1224.08 812.492 1223.45 810.996C1222.81 809.5 1222.5 807.868 1222.5 806.1C1222.5 804.332 1222.81 802.7 1223.45 801.204C1224.08 799.708 1224.98 798.416 1226.13 797.328C1227.29 796.217 1228.64 795.367 1230.18 794.778C1231.72 794.166 1233.41 793.86 1235.25 793.86C1237.2 793.86 1238.97 794.2 1240.58 794.88C1242.19 795.537 1243.55 796.523 1244.66 797.838L1241.81 800.524C1240.95 799.595 1239.98 798.903 1238.92 798.45C1237.85 797.974 1236.7 797.736 1235.45 797.736C1234.2 797.736 1233.06 797.94 1232.02 798.348C1231 798.756 1230.1 799.334 1229.33 800.082C1228.58 800.83 1227.99 801.714 1227.56 802.734C1227.15 803.754 1226.95 804.876 1226.95 806.1C1226.95 807.324 1227.15 808.446 1227.56 809.466C1227.99 810.486 1228.58 811.37 1229.33 812.118C1230.1 812.866 1231 813.444 1232.02 813.852C1233.06 814.26 1234.2 814.464 1235.45 814.464C1236.7 814.464 1237.85 814.237 1238.92 813.784C1239.98 813.308 1240.95 812.594 1241.81 811.642L1244.66 814.362C1243.55 815.654 1242.19 816.64 1240.58 817.32C1238.97 818 1237.18 818.34 1235.21 818.34ZM1259.51 818V814.328L1259.27 813.546V807.12C1259.27 805.873 1258.9 804.91 1258.15 804.23C1257.4 803.527 1256.27 803.176 1254.75 803.176C1253.73 803.176 1252.72 803.335 1251.73 803.652C1250.75 803.969 1249.92 804.411 1249.24 804.978L1247.58 801.884C1248.55 801.136 1249.71 800.581 1251.05 800.218C1252.41 799.833 1253.81 799.64 1255.26 799.64C1257.89 799.64 1259.92 800.275 1261.35 801.544C1262.8 802.791 1263.52 804.729 1263.52 807.358V818H1259.51ZM1253.8 818.238C1252.44 818.238 1251.25 818.011 1250.23 817.558C1249.21 817.082 1248.42 816.436 1247.85 815.62C1247.31 814.781 1247.03 813.841 1247.03 812.798C1247.03 811.778 1247.27 810.86 1247.75 810.044C1248.25 809.228 1249.05 808.582 1250.16 808.106C1251.27 807.63 1252.75 807.392 1254.58 807.392H1259.85V810.214H1254.89C1253.44 810.214 1252.46 810.452 1251.96 810.928C1251.46 811.381 1251.22 811.948 1251.22 812.628C1251.22 813.399 1251.52 814.011 1252.13 814.464C1252.75 814.917 1253.6 815.144 1254.68 815.144C1255.73 815.144 1256.66 814.906 1257.47 814.43C1258.31 813.954 1258.91 813.251 1259.27 812.322L1259.99 814.872C1259.58 815.937 1258.84 816.765 1257.78 817.354C1256.73 817.943 1255.41 818.238 1253.8 818.238ZM1268.98 818V799.844H1273.02V804.842L1272.55 803.38C1273.09 802.156 1273.94 801.227 1275.1 800.592C1276.28 799.957 1277.74 799.64 1279.48 799.64V803.686C1279.3 803.641 1279.13 803.618 1278.97 803.618C1278.81 803.595 1278.66 803.584 1278.5 803.584C1276.89 803.584 1275.61 804.06 1274.66 805.012C1273.7 805.941 1273.23 807.335 1273.23 809.194V818H1268.98ZM1290.61 818.238C1288.86 818.238 1287.29 817.853 1285.88 817.082C1284.5 816.289 1283.41 815.201 1282.62 813.818C1281.82 812.435 1281.43 810.803 1281.43 808.922C1281.43 807.041 1281.82 805.409 1282.62 804.026C1283.41 802.643 1284.5 801.567 1285.88 800.796C1287.29 800.025 1288.86 799.64 1290.61 799.64C1292.13 799.64 1293.49 799.98 1294.69 800.66C1295.89 801.317 1296.84 802.326 1297.54 803.686C1298.25 805.046 1298.6 806.791 1298.6 808.922C1298.6 811.03 1298.26 812.775 1297.58 814.158C1296.9 815.518 1295.96 816.538 1294.75 817.218C1293.55 817.898 1292.17 818.238 1290.61 818.238ZM1291.12 814.6C1292.14 814.6 1293.04 814.373 1293.84 813.92C1294.65 813.467 1295.3 812.809 1295.77 811.948C1296.27 811.087 1296.52 810.078 1296.52 808.922C1296.52 807.743 1296.27 806.735 1295.77 805.896C1295.3 805.035 1294.65 804.377 1293.84 803.924C1293.04 803.471 1292.14 803.244 1291.12 803.244C1290.1 803.244 1289.18 803.471 1288.36 803.924C1287.57 804.377 1286.92 805.035 1286.42 805.896C1285.95 806.735 1285.71 807.743 1285.71 808.922C1285.71 810.078 1285.95 811.087 1286.42 811.948C1286.92 812.809 1287.57 813.467 1288.36 813.92C1289.18 814.373 1290.1 814.6 1291.12 814.6ZM1296.62 818V813.716L1296.79 808.888L1296.45 804.06V792.772H1300.67V818H1296.62Z" fill="black"/>
<path d="M559.846 108V93.25H554.046V90.5H568.896V93.25H563.096V108H559.846ZM575.668 108.175C574.301 108.175 573.085 107.883 572.018 107.3C570.951 106.7 570.11 105.883 569.493 104.85C568.876 103.817 568.568 102.642 568.568 101.325C568.568 99.9917 568.876 98.8167 569.493 97.8C570.11 96.7667 570.951 95.9583 572.018 95.375C573.085 94.7917 574.301 94.5 575.668 94.5C577.051 94.5 578.276 94.7917 579.343 95.375C580.426 95.9583 581.268 96.7583 581.868 97.775C582.485 98.7917 582.793 99.975 582.793 101.325C582.793 102.642 582.485 103.817 581.868 104.85C581.268 105.883 580.426 106.7 579.343 107.3C578.276 107.883 577.051 108.175 575.668 108.175ZM575.668 105.5C576.435 105.5 577.118 105.333 577.718 105C578.318 104.667 578.785 104.183 579.118 103.55C579.468 102.917 579.643 102.175 579.643 101.325C579.643 100.458 579.468 99.7167 579.118 99.1C578.785 98.4667 578.318 97.9833 577.718 97.65C577.118 97.3167 576.443 97.15 575.693 97.15C574.926 97.15 574.243 97.3167 573.643 97.65C573.06 97.9833 572.593 98.4667 572.243 99.1C571.893 99.7167 571.718 100.458 571.718 101.325C571.718 102.175 571.893 102.917 572.243 103.55C572.593 104.183 573.06 104.667 573.643 105C574.243 105.333 574.918 105.5 575.668 105.5ZM593.181 108.175C592.098 108.175 591.106 107.925 590.206 107.425C589.323 106.925 588.615 106.175 588.081 105.175C587.565 104.158 587.306 102.875 587.306 101.325C587.306 99.7583 587.556 98.475 588.056 97.475C588.573 96.475 589.273 95.7333 590.156 95.25C591.04 94.75 592.048 94.5 593.181 94.5C594.498 94.5 595.656 94.7833 596.656 95.35C597.673 95.9167 598.473 96.7083 599.056 97.725C599.656 98.7417 599.956 99.9417 599.956 101.325C599.956 102.708 599.656 103.917 599.056 104.95C598.473 105.967 597.673 106.758 596.656 107.325C595.656 107.892 594.498 108.175 593.181 108.175ZM585.781 112.85V94.65H588.756V97.8L588.656 101.35L588.906 104.9V112.85H585.781ZM592.831 105.5C593.581 105.5 594.248 105.333 594.831 105C595.431 104.667 595.906 104.183 596.256 103.55C596.606 102.917 596.781 102.175 596.781 101.325C596.781 100.458 596.606 99.7167 596.256 99.1C595.906 98.4667 595.431 97.9833 594.831 97.65C594.248 97.3167 593.581 97.15 592.831 97.15C592.081 97.15 591.406 97.3167 590.806 97.65C590.206 97.9833 589.731 98.4667 589.381 99.1C589.031 99.7167 588.856 100.458 588.856 101.325C588.856 102.175 589.031 102.917 589.381 103.55C589.731 104.183 590.206 104.667 590.806 105C591.406 105.333 592.081 105.5 592.831 105.5ZM602.92 108V94.65H606.045V108H602.92ZM604.495 92.45C603.912 92.45 603.428 92.2667 603.045 91.9C602.678 91.5333 602.495 91.0917 602.495 90.575C602.495 90.0417 602.678 89.6 603.045 89.25C603.428 88.8833 603.912 88.7 604.495 88.7C605.078 88.7 605.553 88.875 605.92 89.225C606.303 89.5583 606.495 89.9833 606.495 90.5C606.495 91.05 606.312 91.5167 605.945 91.9C605.578 92.2667 605.095 92.45 604.495 92.45ZM616.272 108.175C614.872 108.175 613.622 107.883 612.522 107.3C611.438 106.7 610.588 105.883 609.972 104.85C609.355 103.817 609.047 102.642 609.047 101.325C609.047 99.9917 609.355 98.8167 609.972 97.8C610.588 96.7667 611.438 95.9583 612.522 95.375C613.622 94.7917 614.872 94.5 616.272 94.5C617.572 94.5 618.713 94.7667 619.697 95.3C620.697 95.8167 621.455 96.5833 621.972 97.6L619.572 99C619.172 98.3667 618.68 97.9 618.097 97.6C617.53 97.3 616.913 97.15 616.247 97.15C615.48 97.15 614.788 97.3167 614.172 97.65C613.555 97.9833 613.072 98.4667 612.722 99.1C612.372 99.7167 612.197 100.458 612.197 101.325C612.197 102.192 612.372 102.942 612.722 103.575C613.072 104.192 613.555 104.667 614.172 105C614.788 105.333 615.48 105.5 616.247 105.5C616.913 105.5 617.53 105.35 618.097 105.05C618.68 104.75 619.172 104.283 619.572 103.65L621.972 105.05C621.455 106.05 620.697 106.825 619.697 107.375C618.713 107.908 617.572 108.175 616.272 108.175ZM633.432 108V91.75L634.857 93.225H629.732V90.5H636.682V108H633.432Z" fill="black"/>
<path d="M727.832 108V93.25H722.032V90.5H736.882V93.25H731.082V108H727.832ZM743.654 108.175C742.287 108.175 741.07 107.883 740.004 107.3C738.937 106.7 738.095 105.883 737.479 104.85C736.862 103.817 736.554 102.642 736.554 101.325C736.554 99.9917 736.862 98.8167 737.479 97.8C738.095 96.7667 738.937 95.9583 740.004 95.375C741.07 94.7917 742.287 94.5 743.654 94.5C745.037 94.5 746.262 94.7917 747.329 95.375C748.412 95.9583 749.254 96.7583 749.854 97.775C750.47 98.7917 750.779 99.975 750.779 101.325C750.779 102.642 750.47 103.817 749.854 104.85C749.254 105.883 748.412 106.7 747.329 107.3C746.262 107.883 745.037 108.175 743.654 108.175ZM743.654 105.5C744.42 105.5 745.104 105.333 745.704 105C746.304 104.667 746.77 104.183 747.104 103.55C747.454 102.917 747.629 102.175 747.629 101.325C747.629 100.458 747.454 99.7167 747.104 99.1C746.77 98.4667 746.304 97.9833 745.704 97.65C745.104 97.3167 744.429 97.15 743.679 97.15C742.912 97.15 742.229 97.3167 741.629 97.65C741.045 97.9833 740.579 98.4667 740.229 99.1C739.879 99.7167 739.704 100.458 739.704 101.325C739.704 102.175 739.879 102.917 740.229 103.55C740.579 104.183 741.045 104.667 741.629 105C742.229 105.333 742.904 105.5 743.654 105.5ZM761.167 108.175C760.083 108.175 759.092 107.925 758.192 107.425C757.308 106.925 756.6 106.175 756.067 105.175C755.55 104.158 755.292 102.875 755.292 101.325C755.292 99.7583 755.542 98.475 756.042 97.475C756.558 96.475 757.258 95.7333 758.142 95.25C759.025 94.75 760.033 94.5 761.167 94.5C762.483 94.5 763.642 94.7833 764.642 95.35C765.658 95.9167 766.458 96.7083 767.042 97.725C767.642 98.7417 767.942 99.9417 767.942 101.325C767.942 102.708 767.642 103.917 767.042 104.95C766.458 105.967 765.658 106.758 764.642 107.325C763.642 107.892 762.483 108.175 761.167 108.175ZM753.767 112.85V94.65H756.742V97.8L756.642 101.35L756.892 104.9V112.85H753.767ZM760.817 105.5C761.567 105.5 762.233 105.333 762.817 105C763.417 104.667 763.892 104.183 764.242 103.55C764.592 102.917 764.767 102.175 764.767 101.325C764.767 100.458 764.592 99.7167 764.242 99.1C763.892 98.4667 763.417 97.9833 762.817 97.65C762.233 97.3167 761.567 97.15 760.817 97.15C760.067 97.15 759.392 97.3167 758.792 97.65C758.192 97.9833 757.717 98.4667 757.367 99.1C757.017 99.7167 756.842 100.458 756.842 101.325C756.842 102.175 757.017 102.917 757.367 103.55C757.717 104.183 758.192 104.667 758.792 105C759.392 105.333 760.067 105.5 760.817 105.5ZM770.905 108V94.65H774.03V108H770.905ZM772.48 92.45C771.897 92.45 771.414 92.2667 771.03 91.9C770.664 91.5333 770.48 91.0917 770.48 90.575C770.48 90.0417 770.664 89.6 771.03 89.25C771.414 88.8833 771.897 88.7 772.48 88.7C773.064 88.7 773.539 88.875 773.905 89.225C774.289 89.5583 774.48 89.9833 774.48 90.5C774.48 91.05 774.297 91.5167 773.93 91.9C773.564 92.2667 773.08 92.45 772.48 92.45ZM784.257 108.175C782.857 108.175 781.607 107.883 780.507 107.3C779.424 106.7 778.574 105.883 777.957 104.85C777.34 103.817 777.032 102.642 777.032 101.325C777.032 99.9917 777.34 98.8167 777.957 97.8C778.574 96.7667 779.424 95.9583 780.507 95.375C781.607 94.7917 782.857 94.5 784.257 94.5C785.557 94.5 786.699 94.7667 787.682 95.3C788.682 95.8167 789.44 96.5833 789.957 97.6L787.557 99C787.157 98.3667 786.665 97.9 786.082 97.6C785.515 97.3 784.899 97.15 784.232 97.15C783.465 97.15 782.774 97.3167 782.157 97.65C781.54 97.9833 781.057 98.4667 780.707 99.1C780.357 99.7167 780.182 100.458 780.182 101.325C780.182 102.192 780.357 102.942 780.707 103.575C781.057 104.192 781.54 104.667 782.157 105C782.774 105.333 783.465 105.5 784.232 105.5C784.899 105.5 785.515 105.35 786.082 105.05C786.665 104.75 787.157 104.283 787.557 103.65L789.957 105.05C789.44 106.05 788.682 106.825 787.682 107.375C786.699 107.908 785.557 108.175 784.257 108.175ZM798.393 108V105.825L805.343 99.225C805.926 98.675 806.359 98.1917 806.643 97.775C806.926 97.3583 807.109 96.975 807.193 96.625C807.293 96.2583 807.343 95.9167 807.343 95.6C807.343 94.8 807.068 94.1833 806.518 93.75C805.968 93.3 805.159 93.075 804.093 93.075C803.243 93.075 802.468 93.225 801.768 93.525C801.084 93.825 800.493 94.2833 799.993 94.9L797.718 93.15C798.401 92.2333 799.318 91.525 800.468 91.025C801.634 90.5083 802.934 90.25 804.368 90.25C805.634 90.25 806.734 90.4583 807.668 90.875C808.618 91.275 809.343 91.85 809.843 92.6C810.359 93.35 810.618 94.2417 810.618 95.275C810.618 95.8417 810.543 96.4083 810.393 96.975C810.243 97.525 809.959 98.1083 809.543 98.725C809.126 99.3417 808.518 100.033 807.718 100.8L801.743 106.475L801.068 105.25H811.293V108H798.393Z" fill="black"/>
<path d="M898.332 108V93.25H892.532V90.5H907.382V93.25H901.582V108H898.332ZM914.154 108.175C912.787 108.175 911.57 107.883 910.504 107.3C909.437 106.7 908.595 105.883 907.979 104.85C907.362 103.817 907.054 102.642 907.054 101.325C907.054 99.9917 907.362 98.8167 907.979 97.8C908.595 96.7667 909.437 95.9583 910.504 95.375C911.57 94.7917 912.787 94.5 914.154 94.5C915.537 94.5 916.762 94.7917 917.829 95.375C918.912 95.9583 919.754 96.7583 920.354 97.775C920.97 98.7917 921.279 99.975 921.279 101.325C921.279 102.642 920.97 103.817 920.354 104.85C919.754 105.883 918.912 106.7 917.829 107.3C916.762 107.883 915.537 108.175 914.154 108.175ZM914.154 105.5C914.92 105.5 915.604 105.333 916.204 105C916.804 104.667 917.27 104.183 917.604 103.55C917.954 102.917 918.129 102.175 918.129 101.325C918.129 100.458 917.954 99.7167 917.604 99.1C917.27 98.4667 916.804 97.9833 916.204 97.65C915.604 97.3167 914.929 97.15 914.179 97.15C913.412 97.15 912.729 97.3167 912.129 97.65C911.545 97.9833 911.079 98.4667 910.729 99.1C910.379 99.7167 910.204 100.458 910.204 101.325C910.204 102.175 910.379 102.917 910.729 103.55C911.079 104.183 911.545 104.667 912.129 105C912.729 105.333 913.404 105.5 914.154 105.5ZM931.667 108.175C930.583 108.175 929.592 107.925 928.692 107.425C927.808 106.925 927.1 106.175 926.567 105.175C926.05 104.158 925.792 102.875 925.792 101.325C925.792 99.7583 926.042 98.475 926.542 97.475C927.058 96.475 927.758 95.7333 928.642 95.25C929.525 94.75 930.533 94.5 931.667 94.5C932.983 94.5 934.142 94.7833 935.142 95.35C936.158 95.9167 936.958 96.7083 937.542 97.725C938.142 98.7417 938.442 99.9417 938.442 101.325C938.442 102.708 938.142 103.917 937.542 104.95C936.958 105.967 936.158 106.758 935.142 107.325C934.142 107.892 932.983 108.175 931.667 108.175ZM924.267 112.85V94.65H927.242V97.8L927.142 101.35L927.392 104.9V112.85H924.267ZM931.317 105.5C932.067 105.5 932.733 105.333 933.317 105C933.917 104.667 934.392 104.183 934.742 103.55C935.092 102.917 935.267 102.175 935.267 101.325C935.267 100.458 935.092 99.7167 934.742 99.1C934.392 98.4667 933.917 97.9833 933.317 97.65C932.733 97.3167 932.067 97.15 931.317 97.15C930.567 97.15 929.892 97.3167 929.292 97.65C928.692 97.9833 928.217 98.4667 927.867 99.1C927.517 99.7167 927.342 100.458 927.342 101.325C927.342 102.175 927.517 102.917 927.867 103.55C928.217 104.183 928.692 104.667 929.292 105C929.892 105.333 930.567 105.5 931.317 105.5ZM941.405 108V94.65H944.53V108H941.405ZM942.98 92.45C942.397 92.45 941.914 92.2667 941.53 91.9C941.164 91.5333 940.98 91.0917 940.98 90.575C940.98 90.0417 941.164 89.6 941.53 89.25C941.914 88.8833 942.397 88.7 942.98 88.7C943.564 88.7 944.039 88.875 944.405 89.225C944.789 89.5583 944.98 89.9833 944.98 90.5C944.98 91.05 944.797 91.5167 944.43 91.9C944.064 92.2667 943.58 92.45 942.98 92.45ZM954.757 108.175C953.357 108.175 952.107 107.883 951.007 107.3C949.924 106.7 949.074 105.883 948.457 104.85C947.84 103.817 947.532 102.642 947.532 101.325C947.532 99.9917 947.84 98.8167 948.457 97.8C949.074 96.7667 949.924 95.9583 951.007 95.375C952.107 94.7917 953.357 94.5 954.757 94.5C956.057 94.5 957.199 94.7667 958.182 95.3C959.182 95.8167 959.94 96.5833 960.457 97.6L958.057 99C957.657 98.3667 957.165 97.9 956.582 97.6C956.015 97.3 955.399 97.15 954.732 97.15C953.965 97.15 953.274 97.3167 952.657 97.65C952.04 97.9833 951.557 98.4667 951.207 99.1C950.857 99.7167 950.682 100.458 950.682 101.325C950.682 102.192 950.857 102.942 951.207 103.575C951.557 104.192 952.04 104.667 952.657 105C953.274 105.333 953.965 105.5 954.732 105.5C955.399 105.5 956.015 105.35 956.582 105.05C957.165 104.75 957.657 104.283 958.057 103.65L960.457 105.05C959.94 106.05 959.182 106.825 958.182 107.375C957.199 107.908 956.057 108.175 954.757 108.175ZM974.618 108.25C973.384 108.25 972.176 108.075 970.993 107.725C969.826 107.358 968.843 106.858 968.043 106.225L969.443 103.7C970.076 104.217 970.843 104.633 971.743 104.95C972.643 105.267 973.584 105.425 974.568 105.425C975.734 105.425 976.643 105.192 977.293 104.725C977.943 104.242 978.268 103.592 978.268 102.775C978.268 101.975 977.968 101.342 977.368 100.875C976.768 100.408 975.801 100.175 974.468 100.175H972.868V97.95L977.868 92L978.293 93.225H968.893V90.5H980.818V92.675L975.818 98.625L974.118 97.625H975.093C977.243 97.625 978.851 98.1083 979.918 99.075C981.001 100.025 981.543 101.25 981.543 102.75C981.543 103.733 981.293 104.642 980.793 105.475C980.293 106.308 979.526 106.983 978.493 107.5C977.476 108 976.184 108.25 974.618 108.25Z" fill="black"/>
<path d="M91.76 73V45H96.96V68.6H111.6V73H91.76ZM124.63 73.28C122.443 73.28 120.497 72.8133 118.79 71.88C117.083 70.92 115.737 69.6133 114.75 67.96C113.763 66.3067 113.27 64.4267 113.27 62.32C113.27 60.1867 113.763 58.3067 114.75 56.68C115.737 55.0267 117.083 53.7333 118.79 52.8C120.497 51.8667 122.443 51.4 124.63 51.4C126.843 51.4 128.803 51.8667 130.51 52.8C132.243 53.7333 133.59 55.0133 134.55 56.64C135.537 58.2667 136.03 60.16 136.03 62.32C136.03 64.4267 135.537 66.3067 134.55 67.96C133.59 69.6133 132.243 70.92 130.51 71.88C128.803 72.8133 126.843 73.28 124.63 73.28ZM124.63 69C125.857 69 126.95 68.7333 127.91 68.2C128.87 67.6667 129.617 66.8933 130.15 65.88C130.71 64.8667 130.99 63.68 130.99 62.32C130.99 60.9333 130.71 59.7467 130.15 58.76C129.617 57.7467 128.87 56.9733 127.91 56.44C126.95 55.9067 125.87 55.64 124.67 55.64C123.443 55.64 122.35 55.9067 121.39 56.44C120.457 56.9733 119.71 57.7467 119.15 58.76C118.59 59.7467 118.31 60.9333 118.31 62.32C118.31 63.68 118.59 64.8667 119.15 65.88C119.71 66.8933 120.457 67.6667 121.39 68.2C122.35 68.7333 123.43 69 124.63 69ZM150.491 81.04C148.518 81.04 146.585 80.7733 144.691 80.24C142.825 79.7333 141.291 78.9867 140.091 78L142.331 74.24C143.265 75.0133 144.438 75.6267 145.851 76.08C147.291 76.56 148.745 76.8 150.211 76.8C152.558 76.8 154.278 76.2533 155.371 75.16C156.465 74.0933 157.011 72.48 157.011 70.32V66.52L157.411 61.68L157.251 56.84V51.64H162.011V69.76C162.011 73.6267 161.025 76.4667 159.051 78.28C157.078 80.12 154.225 81.04 150.491 81.04ZM149.851 72.04C147.825 72.04 145.985 71.6133 144.331 70.76C142.705 69.88 141.411 68.6667 140.451 67.12C139.518 65.5733 139.051 63.76 139.051 61.68C139.051 59.6267 139.518 57.8267 140.451 56.28C141.411 54.7333 142.705 53.5333 144.331 52.68C145.985 51.8267 147.825 51.4 149.851 51.4C151.665 51.4 153.291 51.76 154.731 52.48C156.171 53.2 157.318 54.32 158.171 55.84C159.051 57.36 159.491 59.3067 159.491 61.68C159.491 64.0533 159.051 66.0133 158.171 67.56C157.318 69.08 156.171 70.2133 154.731 70.96C153.291 71.68 151.665 72.04 149.851 72.04ZM150.611 67.8C151.865 67.8 152.985 67.5467 153.971 67.04C154.958 66.5067 155.718 65.7867 156.251 64.88C156.811 63.9467 157.091 62.88 157.091 61.68C157.091 60.48 156.811 59.4267 156.251 58.52C155.718 57.5867 154.958 56.88 153.971 56.4C152.985 55.8933 151.865 55.64 150.611 55.64C149.358 55.64 148.225 55.8933 147.211 56.4C146.225 56.88 145.451 57.5867 144.891 58.52C144.358 59.4267 144.091 60.48 144.091 61.68C144.091 62.88 144.358 63.9467 144.891 64.88C145.451 65.7867 146.225 66.5067 147.211 67.04C148.225 67.5467 149.358 67.8 150.611 67.8ZM178.185 73.28C175.998 73.28 174.051 72.8133 172.345 71.88C170.638 70.92 169.291 69.6133 168.305 67.96C167.318 66.3067 166.825 64.4267 166.825 62.32C166.825 60.1867 167.318 58.3067 168.305 56.68C169.291 55.0267 170.638 53.7333 172.345 52.8C174.051 51.8667 175.998 51.4 178.185 51.4C180.398 51.4 182.358 51.8667 184.065 52.8C185.798 53.7333 187.145 55.0133 188.105 56.64C189.091 58.2667 189.585 60.16 189.585 62.32C189.585 64.4267 189.091 66.3067 188.105 67.96C187.145 69.6133 185.798 70.92 184.065 71.88C182.358 72.8133 180.398 73.28 178.185 73.28ZM178.185 69C179.411 69 180.505 68.7333 181.465 68.2C182.425 67.6667 183.171 66.8933 183.705 65.88C184.265 64.8667 184.545 63.68 184.545 62.32C184.545 60.9333 184.265 59.7467 183.705 58.76C183.171 57.7467 182.425 56.9733 181.465 56.44C180.505 55.9067 179.425 55.64 178.225 55.64C176.998 55.64 175.905 55.9067 174.945 56.44C174.011 56.9733 173.265 57.7467 172.705 58.76C172.145 59.7467 171.865 60.9333 171.865 62.32C171.865 63.68 172.145 64.8667 172.705 65.88C173.265 66.8933 174.011 67.6667 174.945 68.2C175.905 68.7333 176.985 69 178.185 69Z" fill="black"/>
</svg>
